<?xml version="1.0" encoding="UTF-8"?>
<svg version="1.1" xmlns="http://www.w3.org/2000/svg" width="327" height="437">
<path d="M0 0 C107.91 0 215.82 0 327 0 C327 144.21 327 288.42 327 437 C219.09 437 111.18 437 0 437 C0 292.79 0 148.58 0 0 Z " fill="#FDFDFD" transform="translate(0,0)"/>
<path d="M0 0 C3.6696565 2.41032789 6.31901988 4.75647108 8.4375 8.625 C9.2968635 13.78118101 9.1846977 18.78675837 9 24 C8.97035156 25.24136719 8.94070312 26.48273438 8.91015625 27.76171875 C8.5252497 37.0464158 7.83891882 45.72654221 0.6875 52.3125 C-0.199375 53.199375 -1.08625 54.08625 -2 55 C-2.04097782 57.81416116 -2.04097782 57.81416116 -1 60 C-4.38923729 62.25949153 -5.48632613 62.22132701 -9.4453125 62.16796875 C-10.52296875 62.17505859 -11.600625 62.18214844 -12.7109375 62.18945312 C-14.96363764 62.18816439 -17.21641871 62.16773716 -19.46875 62.12695312 C-27.74447899 62.23015402 -32.15966967 64.15414204 -38 70 C-38.77472656 70.7734375 -39.54945313 71.546875 -40.34765625 72.34375 C-46.99188923 80.69822973 -52.10734496 90.06683529 -56 100 C-55.25916137 99.99815641 -54.51832273 99.99631283 -53.75503445 99.99441338 C-35.7186096 99.95022114 -17.68219557 99.91713699 0.35427189 99.89637566 C9.07661446 99.88606846 17.79892087 99.87201875 26.52124023 99.84912109 C34.12469442 99.82917019 41.7281224 99.81627952 49.33160204 99.81182301 C53.35659462 99.80921851 57.38151226 99.80310838 61.40648079 99.78853989 C65.19769399 99.77492912 68.98880162 99.77078441 72.78003693 99.77378464 C74.16873944 99.77323604 75.55744561 99.76927942 76.94612694 99.76158905 C88.00056671 99.70339194 95.6310661 100.3100871 104 108 C110.20494184 114.75283958 112.4624469 121.34983278 112.25390625 130.51171875 C111.4817891 138.0784668 107.69927028 144.36350345 102.3125 149.625 C95.56816813 154.87001617 88.75714392 156.59599062 80.34701538 156.49447632 C78.95243951 156.50171956 78.95243951 156.50171956 77.52969038 156.50910914 C74.43665635 156.52031634 71.34446083 156.50310927 68.25146484 156.48583984 C66.02506792 156.48798726 63.7986721 156.49186727 61.57228088 156.49734497 C55.54143341 156.50701853 49.51088309 156.49176029 43.48007154 156.47143888 C37.16393351 156.45384116 30.84780428 156.45739347 24.53164673 156.4581604 C13.92794229 156.45628889 3.32436336 156.43905241 -7.27929688 156.41162109 C-18.18003415 156.38343603 -29.0806711 156.36928027 -39.98144531 156.37060547 C-40.65317097 156.37068538 -41.32489664 156.37076529 -42.01697762 156.37084763 C-42.68756496 156.37092834 -43.3581523 156.37100905 -44.04906046 156.3710922 C-57.10479579 156.37254303 -70.16049009 156.35856094 -83.21621275 156.34019899 C-86.97597786 156.33593816 -90.73573517 156.33451689 -94.49550247 156.33372116 C-100.40363461 156.33171101 -106.31166157 156.31949084 -112.21975899 156.29938889 C-114.38732191 156.29355148 -116.55489695 156.2910856 -118.72246742 156.29224396 C-121.682084 156.29322701 -124.64140704 156.28189803 -127.60098267 156.26742554 C-128.45769896 156.27052274 -129.31441526 156.27361995 -130.19709265 156.276811 C-139.17322399 156.2043735 -145.2060676 153.94654915 -152 148 C-157.32712744 142.5248968 -160.22830442 136.00317034 -160.375 128.375 C-159.95818638 119.00971903 -156.95838927 112.55608588 -150.07421875 106.23046875 C-143.58071097 101.04827128 -137.12835799 99.72060949 -128.87890625 99.5859375 C-128.13414536 99.56657135 -127.38938446 99.5472052 -126.62205505 99.5272522 C-124.26898251 99.46799844 -121.91585957 99.42129086 -119.5625 99.375 C-117.95636017 99.33677015 -116.35023975 99.29771558 -114.74414062 99.2578125 C-110.82958675 99.1623425 -106.91493709 99.07811457 -103 99 C-103.61198242 98.40396973 -104.22396484 97.80793945 -104.85449219 97.19384766 C-105.66047852 96.40026855 -106.46646484 95.60668945 -107.296875 94.7890625 C-108.09448242 94.00740723 -108.89208984 93.22575195 -109.71386719 92.42041016 C-118.48042171 83.13894694 -123.30322769 70.41227837 -123.13525391 57.72900391 C-123.08682293 56.07877539 -123.03312703 54.42869284 -122.97412109 52.77880859 C-122.82104099 47.03538314 -123.77470097 42.97821664 -126.09765625 37.6875 C-128.20667577 31.40609121 -128.23744772 23.90515744 -125.640625 17.80859375 C-122.39576442 12.25370147 -118.6011787 7.34678135 -112.60546875 4.65625 C-109.05833879 3.76281996 -105.57568243 3.60540506 -101.9375 3.5625 C-101.26477051 3.55226807 -100.59204102 3.54203613 -99.89892578 3.53149414 C-94.96493295 3.61776963 -91.45998417 5.03159816 -87 7 C-84.13841363 7.27628498 -84.13841363 7.27628498 -81.25 7.1875 C-73.96895693 7.54267283 -68.13352488 10.15374855 -61.62402344 13.20581055 C-57.24188887 15.22808789 -53.94321763 16.60301299 -49 16 C-45.64506727 14.5271027 -44.04563118 13.05709829 -41.74609375 10.1796875 C-39.08336012 6.93283544 -36.09139172 4.63777577 -32.625 2.25 C-31.00464844 1.11304688 -31.00464844 1.11304688 -29.3515625 -0.046875 C-19.45255762 -5.81552586 -9.88583977 -5.28549849 0 0 Z " fill="#016076" transform="translate(188,254)"/>
<path d="M0 0 C3.6696565 2.41032789 6.31901988 4.75647108 8.4375 8.625 C9.2968635 13.78118101 9.1846977 18.78675837 9 24 C8.97035156 25.24136719 8.94070312 26.48273438 8.91015625 27.76171875 C8.5252497 37.0464158 7.83891882 45.72654221 0.6875 52.3125 C-0.199375 53.199375 -1.08625 54.08625 -2 55 C-2.04097782 57.81416116 -2.04097782 57.81416116 -1 60 C-4.38923729 62.25949153 -5.48632613 62.22132701 -9.4453125 62.16796875 C-10.52296875 62.17505859 -11.600625 62.18214844 -12.7109375 62.18945312 C-14.96363764 62.18816439 -17.21641871 62.16773716 -19.46875 62.12695312 C-27.74447899 62.23015402 -32.15966967 64.15414204 -38 70 C-38.77472656 70.7734375 -39.54945313 71.546875 -40.34765625 72.34375 C-46.99188923 80.69822973 -52.10734496 90.06683529 -56 100 C-62.26177137 100.17826922 -68.52288301 100.30039607 -74.78662109 100.38452148 C-76.91479952 100.41960846 -79.04281061 100.46729229 -81.17041016 100.52807617 C-84.23902752 100.61351498 -87.30540553 100.65280577 -90.375 100.68359375 C-91.31802979 100.71972275 -92.26105957 100.75585175 -93.23266602 100.79307556 C-99.67638476 100.79685962 -102.84146225 99.26759648 -107.41487122 94.72503662 C-107.93796371 94.15577454 -108.46105621 93.58651245 -109 93 C-109.70511719 92.26394531 -110.41023438 91.52789062 -111.13671875 90.76953125 C-119.22788366 80.55876646 -123.39395073 68.70690233 -122.875 55.75 C-122.71890879 48.94767495 -123.33592083 43.97757356 -126.09765625 37.6875 C-128.20667577 31.40609121 -128.23744772 23.90515744 -125.640625 17.80859375 C-122.39576442 12.25370147 -118.6011787 7.34678135 -112.60546875 4.65625 C-109.05833879 3.76281996 -105.57568243 3.60540506 -101.9375 3.5625 C-101.26477051 3.55226807 -100.59204102 3.54203613 -99.89892578 3.53149414 C-94.96493295 3.61776963 -91.45998417 5.03159816 -87 7 C-84.13841363 7.27628498 -84.13841363 7.27628498 -81.25 7.1875 C-73.96895693 7.54267283 -68.13352488 10.15374855 -61.62402344 13.20581055 C-57.24188887 15.22808789 -53.94321763 16.60301299 -49 16 C-45.64506727 14.5271027 -44.04563118 13.05709829 -41.74609375 10.1796875 C-39.08336012 6.93283544 -36.09139172 4.63777577 -32.625 2.25 C-31.00464844 1.11304688 -31.00464844 1.11304688 -29.3515625 -0.046875 C-19.45255762 -5.81552586 -9.88583977 -5.28549849 0 0 Z " fill="#512B60" transform="translate(188,254)"/>
<path d="M0 0 C6.28596995 5.55504322 12.41389149 12.54101256 13.3359375 21.12890625 C13.52877133 38.0789996 6.79538491 50.47606228 -4.609375 62.71484375 C-9.00311581 66.91474305 -13.93237052 70.24551209 -19.19921875 73.2578125 C-23.84052519 75.92766877 -26.39078306 78.61987777 -29.4375 83.0078125 C-34.27126682 89.17086519 -42.21594433 94.05072492 -50 95 C-52.33301986 95.03824623 -54.66711508 95.04574284 -57 95 C-57 94.34 -57 93.68 -57 93 C-56.34 93 -55.68 93 -55 93 C-52.91620491 89.15299368 -51.50313376 85.09945571 -50 81 C-50.94101563 80.89042969 -51.88203125 80.78085937 -52.8515625 80.66796875 C-54.09679687 80.50941406 -55.34203125 80.35085938 -56.625 80.1875 C-58.46964844 79.96126953 -58.46964844 79.96126953 -60.3515625 79.73046875 C-64.2056067 78.95883463 -66.82135166 78.33513896 -70 76 C-70.66472042 73.19102014 -70.97267313 71.01832966 -71.0625 68.1875 C-71.30649226 61.73063172 -72.25887704 58.5715549 -77 54 C-79.27232988 52.52990585 -79.27232988 52.52990585 -81.625 51.6875 C-82.38039062 51.38199219 -83.13578125 51.07648438 -83.9140625 50.76171875 C-87.5601106 49.43029669 -90.31404976 48.88719545 -94.1875 48.9375 C-95.08855469 48.94652344 -95.98960937 48.95554687 -96.91796875 48.96484375 C-97.60503906 48.97644531 -98.29210937 48.98804688 -99 49 C-102.06716448 43.63602863 -103.9011061 39.23031559 -104 33 C-103.26122773 31.36185278 -102.51849925 29.72449849 -101.71484375 28.1171875 C-99.72785125 22.23221516 -100.01259032 15.20521496 -102.5234375 9.59765625 C-103.01070312 8.74042969 -103.49796875 7.88320312 -104 7 C-94.75123841 -4.05915747 -86.07733452 -10.06968379 -72 -14 C-71.23558594 -14.226875 -70.47117188 -14.45375 -69.68359375 -14.6875 C-46.70987475 -20.44091832 -18.49886557 -14.69999139 0 0 Z " fill="#A76AE5" transform="translate(267,202)"/>
<path d="M0 0 C-0.9590625 0.4021875 -0.9590625 0.4021875 -1.9375 0.8125 C-4.33131686 1.88667752 -4.33131686 1.88667752 -5 5 C-6.00020483 12.78730906 -4.24854166 18.46467498 0 25 C2.72188369 28.18659553 5.10723983 30.41406067 9 32 C9.33 31.67 9.66 31.34 10 31 C11.99958364 30.95919217 14.00045254 30.95745644 16 31 C16 32.98 16 34.96 16 37 C16.33 35.02 16.66 33.04 17 31 C18.98 31 20.96 31 23 31 C22.7215625 32.1446875 22.7215625 32.1446875 22.4375 33.3125 C21.77180827 36.08967375 21.77180827 36.08967375 23 39 C22.01 39.33 21.02 39.66 20 40 C20.53367188 40.27150879 21.06734375 40.54301758 21.6171875 40.82275391 C24.08216649 42.08243067 26.54103586 43.35362447 29 44.625 C29.83917969 45.05167969 30.67835938 45.47835937 31.54296875 45.91796875 C38.22791274 49.38999392 44.95482206 53.2904904 50 59 C50.625 61.6875 50.625 61.6875 50 65 C46.91885975 69.72249533 42.8339819 73.24155142 38.375 76.625 C31.6328611 81.58589965 31.6328611 81.58589965 28.3984375 89.08984375 C28.09887793 91.3466951 27.84737807 93.61063035 27.65234375 95.87890625 C26.88079021 99.57035102 25.60528851 101.31284475 23 104 C20.25 105.3125 20.25 105.3125 18 106 C18 106.66 18 107.32 18 108 C15.69 108 13.38 108 11 108 C11 107.34 11 106.68 11 106 C11.66 106 12.32 106 13 106 C15.08379509 102.15299368 16.49686624 98.09945571 18 94 C17.05898437 93.89042969 16.11796875 93.78085937 15.1484375 93.66796875 C13.90320313 93.50941406 12.65796875 93.35085938 11.375 93.1875 C9.53035156 92.96126953 9.53035156 92.96126953 7.6484375 92.73046875 C3.7943933 91.95883463 1.17864834 91.33513896 -2 89 C-2.66472042 86.19102014 -2.97267313 84.01832966 -3.0625 81.1875 C-3.30649226 74.73063172 -4.25887704 71.5715549 -9 67 C-11.27232988 65.52990585 -11.27232988 65.52990585 -13.625 64.6875 C-14.38039062 64.38199219 -15.13578125 64.07648438 -15.9140625 63.76171875 C-19.5601106 62.43029669 -22.31404976 61.88719545 -26.1875 61.9375 C-27.08855469 61.94652344 -27.98960937 61.95554688 -28.91796875 61.96484375 C-29.60503906 61.97644531 -30.29210937 61.98804688 -31 62 C-34.06716448 56.63602863 -35.9011061 52.23031559 -36 46 C-35.26122773 44.36185278 -34.51849925 42.72449849 -33.71484375 41.1171875 C-31.72785125 35.23221516 -32.01259032 28.20521496 -34.5234375 22.59765625 C-35.01070312 21.74042969 -35.49796875 20.88320312 -36 20 C-28.35023833 10.85283818 -13.45091386 -4.87675313 0 0 Z " fill="#C783E5" transform="translate(199,189)"/>
<path d="M0 0 C0.99 0.495 0.99 0.495 2 1 C1.67 1.66 1.34 2.32 1 3 C1.62648438 2.97679687 2.25296875 2.95359375 2.8984375 2.9296875 C3.71570313 2.91164063 4.53296875 2.89359375 5.375 2.875 C6.18710937 2.85179687 6.99921875 2.82859375 7.8359375 2.8046875 C10 3 10 3 12 5 C6.72 6.32 1.44 7.64 -4 9 C-4 11.31 -4 13.62 -4 16 C-6.29826101 25.72341195 -10.75157178 39.75157178 -18 47 C-19.49283798 47.09571971 -20.99019655 47.12188227 -22.48609924 47.12025452 C-23.45510162 47.12162918 -24.424104 47.12300385 -25.42247009 47.12442017 C-27.03007957 47.11902725 -27.03007957 47.11902725 -28.67016602 47.11352539 C-30.35287598 47.11374443 -30.35287598 47.11374443 -32.06958008 47.1139679 C-35.79770811 47.1132682 -39.52578689 47.10547315 -43.25390625 47.09765625 C-45.83080518 47.09579227 -48.40770447 47.09436827 -50.98460388 47.09336853 C-57.08675115 47.08993342 -63.18887794 47.0820426 -69.29101747 47.07201904 C-76.2364925 47.06085689 -83.18196835 47.0553472 -90.12745011 47.05032361 C-104.41830966 47.03985996 -118.7091542 47.02226115 -133 47 C-132.53815067 45.57310982 -132.07267801 44.14739215 -131.60571289 42.72216797 C-131.34689835 41.9280954 -131.0880838 41.13402283 -130.82142639 40.31588745 C-126.65360639 28.56534943 -117.30901323 14.62915008 -106 9 C-101.79326339 8.43119971 -97.61565437 8.39445254 -93.375 8.375 C-91.13270237 8.3494613 -88.89047773 8.31594063 -86.6484375 8.2734375 C-85.66020996 8.26747559 -84.67198242 8.26151367 -83.65380859 8.25537109 C-80.95471917 7.99564271 -79.30949257 7.37830079 -77 6 C-71.52431478 10.79122457 -68.18905695 15.69240746 -64.9296875 22.11181641 C-62.85107911 26.05575931 -61.1266825 28.23672487 -57 30 C-47.86378075 31.71055484 -40.56048344 29.0241881 -33 24 C-30.32435856 21.83303564 -27.72507003 19.61973378 -25.15673828 17.32885742 C-19.15974764 12.06069878 -12.44737935 8.0968901 -5.62060547 4.0078125 C-3.65470158 2.78526787 -1.81259691 1.43900823 0 0 Z " fill="#FC8399" transform="translate(265,307)"/>
<path d="M0 0 C3.64729092 2.19016244 6.61974465 4.32982229 9.3125 7.625 C10.04919922 8.51058594 10.04919922 8.51058594 10.80078125 9.4140625 C14.44411791 14.23228622 13.71649138 20.26806895 13 26 C9.17329928 37.22818771 2.47088182 46.29711076 -8.0625 52 C-12.40806382 53.97896568 -16.24811442 54.73600636 -21 55 C-19.68 57.64 -18.36 60.28 -17 63 C-23.23428897 62.62216431 -27.07423716 62.14211875 -32 58 C-33.16210756 56.54736556 -34.32299665 55.09361363 -35.46484375 53.625 C-37.38056836 51.59715919 -39.48484641 50.22268527 -41.8125 48.6875 C-49.10849929 43.75101166 -56.58452849 36.76726697 -59 28 C-59.89289444 21.76540376 -60.2551962 15.92153821 -56.5625 10.5625 C-42.01464204 -5.54164044 -19.33260889 -8.02018602 0 0 Z " fill="#FBB04B" transform="translate(154,202)"/>
<path d="M0 0 C0.07779253 3.81183414 -0.0074191 5.95214777 -2.68359375 8.77734375 C-6.75452715 11.97748926 -11.06816261 14.64715554 -15.5 17.3125 C-28.95939153 25.82303447 -35.905764 39.780116 -42 54 C-52.89 54 -63.78 54 -75 54 C-74.01 52.35 -73.02 50.7 -72 49 C-71.50476048 47.22342647 -71.06757729 45.42972074 -70.6875 43.625 C-69.3198219 38.24158622 -67.15525704 34.68070122 -63 31 C-60.47862739 29.7393137 -59.21684285 30.08518893 -56.4375 30.4375 C-47.54884538 31.89980375 -47.54884538 31.89980375 -39.5 29.1875 C-36.84250055 25.31197997 -36.83314598 21.89666735 -36.625 17.3125 C-35.75554877 5.08977975 -35.75554877 5.08977975 -31.55078125 0.375 C-23.10134043 -6.36988985 -9.64445584 -2.33736224 0 0 Z " fill="#442251" transform="translate(174,300)"/>
<path d="M0 0 C1.22589844 0.01353516 1.22589844 0.01353516 2.4765625 0.02734375 C3.41628906 0.04474609 3.41628906 0.04474609 4.375 0.0625 C5.19332722 1.95582534 6.00442268 3.85227733 6.8125 5.75 C7.49119141 7.33361328 7.49119141 7.33361328 8.18359375 8.94921875 C10.43823776 14.84086228 11.13601375 20.78927853 10.375 27.0625 C8.5625 30.1875 8.5625 30.1875 6.375 32.0625 C5.385 32.0625 4.395 32.0625 3.375 32.0625 C3.49012153 33.79235242 3.61755677 35.52138751 3.75 37.25 C3.81960937 38.21292969 3.88921875 39.17585938 3.9609375 40.16796875 C4.37715853 43.07758938 5.17374096 45.39140774 6.375 48.0625 C2.97602327 50.32848448 1.81180827 50.29992654 -2.16796875 50.2578125 C-3.77768555 50.24814453 -3.77768555 50.24814453 -5.41992188 50.23828125 C-6.53947266 50.22152344 -7.65902344 50.20476562 -8.8125 50.1875 C-9.94365234 50.17847656 -11.07480469 50.16945313 -12.24023438 50.16015625 C-15.03536828 50.13656862 -17.83007845 50.103653 -20.625 50.0625 C-18.60354657 48.54106112 -16.58020932 47.03058975 -14.51953125 45.5625 C-13.83246094 45.0675 -13.14539063 44.5725 -12.4375 44.0625 C-11.74269531 43.5675 -11.04789063 43.0725 -10.33203125 42.5625 C-7.1027859 39.72490225 -7.36726183 35.92397864 -7.0625 31.875 C-6.97871094 30.78832031 -6.89492187 29.70164062 -6.80859375 28.58203125 C-6.71771484 27.33486328 -6.71771484 27.33486328 -6.625 26.0625 C-7.285 26.0625 -7.945 26.0625 -8.625 26.0625 C-12.95929082 21.07149845 -13.74730167 18.66679008 -13.625 12.0625 C-12.635 12.0625 -11.645 12.0625 -10.625 12.0625 C-10.74875 10.7321875 -10.74875 10.7321875 -10.875 9.375 C-10.57030814 5.33783282 -9.40459995 3.92385289 -6.625 1.0625 C-4.21954362 -0.14022819 -2.67503047 -0.03821472 0 0 Z " fill="#98325D" transform="translate(180.625,265.9375)"/>
<path d="M0 0 C0.67272949 -0.01023193 1.34545898 -0.02046387 2.03857422 -0.03100586 C7.06040117 0.05680549 10.51475827 1.26926381 14.9375 3.4375 C12.59490698 5.78009302 10.45490679 6.63516781 7.4375 8 C-3.91135512 13.62685751 -12.93323703 22.44086896 -17.15625 34.58203125 C-17.87964669 37.190948 -18.52378184 39.78495437 -19.0625 42.4375 C-19.7225 42.4375 -20.3825 42.4375 -21.0625 42.4375 C-24.8183357 34.22160941 -26.26209631 26.46149023 -25.0625 17.4375 C-22.11931175 10.52777357 -17.68802703 4.24395024 -10.66796875 1.09375 C-7.12083879 0.20031996 -3.63818243 0.04290506 0 0 Z " fill="#7C70E1" transform="translate(86.0625,257.5625)"/>
<path d="M0 0 C1.65320356 3.14931538 2.916129 6.36805011 4.1875 9.6875 C7.96298983 18.77746233 13.46074994 24.84551015 21 31 C21 31.33 21 31.66 21 32 C14.07 32 7.14 32 0 32 C-10.36423659 15.05529574 -10.36423659 15.05529574 -9 9 C-7.39946802 6.18599279 -5.60887015 3.93180623 -3 2 C-2.01 2 -1.02 2 0 2 C0 1.34 0 0.68 0 0 Z " fill="#E08FDE" transform="translate(66,322)"/>
<path d="M0 0 C-0.04292857 9.12232216 -3.2556297 16.86217883 -7 25 C-7.54011719 26.19753906 -8.08023438 27.39507812 -8.63671875 28.62890625 C-10.22156559 31.75796283 -11.64264892 34.40123345 -14 37 C-17.21657514 37.9711385 -19.75978504 37.79352203 -23 37 C-10.18147208 0 -10.18147208 0 0 0 Z " fill="#FE7B7B" transform="translate(261,317)"/>
<path d="M0 0 C3.61941735 1.50239966 6.7321794 2.82145293 10 5 C10.44140625 7.42578125 10.44140625 7.42578125 10.5625 10.3125 C10.74295905 14.32087821 11.33755395 17.3346069 13 21 C9.60102327 23.26598448 8.43680827 23.23742654 4.45703125 23.1953125 C2.84731445 23.18564453 2.84731445 23.18564453 1.20507812 23.17578125 C-0.47424805 23.15064453 -0.47424805 23.15064453 -2.1875 23.125 C-3.31865234 23.11597656 -4.44980469 23.10695313 -5.61523438 23.09765625 C-8.41036828 23.07406862 -11.20507845 23.041153 -14 23 C-11.97854657 21.47856112 -9.95520932 19.96808975 -7.89453125 18.5 C-7.20746094 18.005 -6.52039063 17.51 -5.8125 17 C-5.11769531 16.505 -4.42289063 16.01 -3.70703125 15.5 C-0.5963218 12.76656195 -0.75922535 9.21916495 -0.4375 5.3125 C-0.35371094 4.31863281 -0.26992187 3.32476562 -0.18359375 2.30078125 C-0.12300781 1.54152344 -0.06242188 0.78226562 0 0 Z " fill="#903054" transform="translate(174,293)"/>
<path d="M0 0 C2.9379382 0.64389063 5.875351 1.29002779 8.8125 1.9375 C9.64587891 2.11990234 10.47925781 2.30230469 11.33789062 2.49023438 C12.54155273 2.75610352 12.54155273 2.75610352 13.76953125 3.02734375 C14.87711792 3.27085571 14.87711792 3.27085571 16.00708008 3.51928711 C18 4 18 4 21 5 C20.25 10.75 20.25 10.75 18 13 C17.67 12.01 17.34 11.02 17 10 C15.72125 10.103125 14.4425 10.20625 13.125 10.3125 C12.40570313 10.37050781 11.68640625 10.42851562 10.9453125 10.48828125 C8.60480784 10.87393036 8.60480784 10.87393036 7 14 C6.9079823 16.15561872 6.9079823 16.15561872 7.125 18.4375 C7.18886409 21.70521248 7.17639612 22.72183688 5.375 25.5625 C2.36627168 27.38357241 0.47028009 27.21689251 -3 27 C-4.34135839 27.29941035 -5.67733497 27.62657517 -7 28 C-6.65066406 27.39671875 -6.30132812 26.7934375 -5.94140625 26.171875 C-5.48636719 25.37265625 -5.03132812 24.5734375 -4.5625 23.75 C-4.11003906 22.96109375 -3.65757812 22.1721875 -3.19140625 21.359375 C-0.88761434 16.79711168 -0.72831371 12.29394927 -0.4375 7.25 C-0.39431641 6.55261719 -0.35113281 5.85523438 -0.30664062 5.13671875 C-0.20110404 3.42468078 -0.1001009 1.71236439 0 0 Z " fill="#EDEEF5" transform="translate(196,278)"/>
<path d="M0 0 C2.66147451 4.01640699 3.84067129 8.36268517 5 13 C-3.58 13 -12.16 13 -21 13 C-18.32929213 6.32323032 -15.63927566 2.62291049 -9.08984375 -0.31640625 C-5.49647133 -1.49180844 -3.50385261 -1.4150174 0 0 Z " fill="#FB6895" transform="translate(163,341)"/>
<path d="M0 0 C1.5675 -0.061875 3.135 -0.12375 4.75 -0.1875 C6.07257813 -0.23970703 6.07257813 -0.23970703 7.421875 -0.29296875 C10.49044646 0.05573255 11.80214362 0.86291384 14 3 C14.375 5.5625 14.375 5.5625 14 8 C13.34 8.66 12.68 9.32 12 10 C12.27617533 11.94074861 12.27617533 11.94074861 13 14 C13.33333333 15.33333333 13.66666667 16.66666667 14 18 C12.35 17.67 10.7 17.34 9 17 C8.34 15.02 7.68 13.04 7 11 C6.01 11 5.02 11 4 11 C4 13.31 4 15.62 4 18 C2.68 18 1.36 18 0 18 C0 12.06 0 6.12 0 0 Z " fill="#414555" transform="translate(216,40)"/>
<path d="M0 0 C1.5675 -0.061875 3.135 -0.12375 4.75 -0.1875 C6.07257813 -0.23970703 6.07257813 -0.23970703 7.421875 -0.29296875 C10.49044646 0.05573255 11.80214362 0.86291384 14 3 C14.375 5.5625 14.375 5.5625 14 8 C13.34 8.66 12.68 9.32 12 10 C12.27617533 11.94074861 12.27617533 11.94074861 13 14 C13.33333333 15.33333333 13.66666667 16.66666667 14 18 C12.35 17.67 10.7 17.34 9 17 C8.34 15.02 7.68 13.04 7 11 C6.01 11 5.02 11 4 11 C4 13.31 4 15.62 4 18 C2.68 18 1.36 18 0 18 C0 12.06 0 6.12 0 0 Z " fill="#414555" transform="translate(79,40)"/>
<path d="M0 0 C3.96 0 7.92 0 12 0 C12 1.32 12 2.64 12 4 C9.36 4 6.72 4 4 4 C4 4.99 4 5.98 4 7 C6.64 7 9.28 7 12 7 C12 8.32 12 9.64 12 11 C9.36 11 6.72 11 4 11 C4 11.99 4 12.98 4 14 C6.97 14 9.94 14 13 14 C13 15.32 13 16.64 13 18 C8.71 18 4.42 18 0 18 C0 12.06 0 6.12 0 0 Z " fill="#303345" transform="translate(233,40)"/>
<path d="M0 0 C3.96 0 7.92 0 12 0 C12 1.32 12 2.64 12 4 C9.36 4 6.72 4 4 4 C4 4.99 4 5.98 4 7 C6.31 7 8.62 7 11 7 C11 8.32 11 9.64 11 11 C8.69 11 6.38 11 4 11 C4 11.99 4 12.98 4 14 C6.64 14 9.28 14 12 14 C12 15.32 12 16.64 12 18 C8.04 18 4.08 18 0 18 C0 12.06 0 6.12 0 0 Z " fill="#2E3143" transform="translate(249,40)"/>
<path d="M0 0 C1.94238281 0.19897461 1.94238281 0.19897461 4 1 C5.09667969 2.67407227 5.09667969 2.67407227 5.921875 4.81640625 C6.22480469 5.58017578 6.52773437 6.34394531 6.83984375 7.13085938 C7.14019531 7.93330078 7.44054687 8.73574219 7.75 9.5625 C8.06582031 10.36880859 8.38164062 11.17511719 8.70703125 12.00585938 C9.48523782 13.99853983 10.24444266 15.99862199 11 18 C9.35 18 7.7 18 6 18 C5.67 16.68 5.34 15.36 5 14 C2.69 14.33 0.38 14.66 -2 15 C-2.33 15.99 -2.66 16.98 -3 18 C-4.65 18 -6.3 18 -8 18 C-6.85718854 15.18623705 -5.71091259 12.37397584 -4.5625 9.5625 C-4.23701172 8.76005859 -3.91152344 7.95761719 -3.57617188 7.13085938 C-3.10727539 5.98520508 -3.10727539 5.98520508 -2.62890625 4.81640625 C-2.34088135 4.10943604 -2.05285645 3.40246582 -1.75610352 2.67407227 C-1 1 -1 1 0 0 Z " fill="#35384A" transform="translate(155,40)"/>
<path d="M0 0 C0.66 0.33 1.32 0.66 2 1 C1.34 2.32 0.68 3.64 0 5 C-1.134375 4.979375 -2.26875 4.95875 -3.4375 4.9375 C-6.81575674 4.58422523 -6.81575674 4.58422523 -8 6 C-8.25005386 8.95817107 -8.25005386 8.95817107 -8 12 C-7.34 12.66 -6.68 13.32 -6 14 C-4.5459375 13.7215625 -4.5459375 13.7215625 -3.0625 13.4375 C-1.5465625 13.2209375 -1.5465625 13.2209375 0 13 C1.875 14.4375 1.875 14.4375 3 16 C-1.0113993 18.6742662 -4.28658035 18.80825788 -9 18 C-11.71195062 15.88335562 -12.70009046 14.43033781 -13.40625 11.0625 C-13.70428739 7.12840645 -13.23107776 5.34661663 -11 2 C-6.92887758 -0.71408161 -4.8224083 -0.47433524 0 0 Z " fill="#292C3F" transform="translate(144,40)"/>
<path d="M0 0 C0.66 0.66 1.32 1.32 2 2 C0 4 0 4 -3.125 4.125 C-4.07375 4.08375 -5.0225 4.0425 -6 4 C-3.76019711 7.35970434 -2.65777032 7.68695425 1 9 C1.33 9.33 1.66 9.66 2 10 C1.6875 13.5 1.6875 13.5 1 17 C-2.21451269 18.60725635 -5.43612536 18.05748185 -9 18 C-9 16.68 -9 15.36 -9 14 C-7.02 14 -5.04 14 -3 14 C-3 13.34 -3 12.68 -3 12 C-3.969375 11.525625 -4.93875 11.05125 -5.9375 10.5625 C-9 9 -9 9 -10 8 C-10.28792759 5.26468791 -10.34443368 3.58756334 -8.9375 1.1875 C-5.94449731 -0.646921 -3.42183337 -0.31107576 0 0 Z " fill="#272B3E" transform="translate(105,40)"/>
<path d="M0 0 C3.96 0 7.92 0 12 0 C12 1.32 12 2.64 12 4 C9.36 4 6.72 4 4 4 C4 4.99 4 5.98 4 7 C6.31 7 8.62 7 11 7 C11 8.32 11 9.64 11 11 C8.69 11 6.38 11 4 11 C4 13.31 4 15.62 4 18 C2.68 18 1.36 18 0 18 C0 12.06 0 6.12 0 0 Z " fill="#2C2F42" transform="translate(202,40)"/>
<path d="M0 0 C0.33 0 0.66 0 1 0 C1.58367268 8.52810639 0.89460924 16.02245095 -4.53125 22.95703125 C-6.125 24.625 -6.125 24.625 -9 27 C-9.66 27 -10.32 27 -11 27 C-11.28320453 23.29316742 -11.45181066 19.69713356 -11 16 C-8.6875 14.25 -8.6875 14.25 -6 13 C-4.67488705 10.72763834 -3.89324494 8.49168324 -3 6 C-2.34 6 -1.68 6 -1 6 C-0.67 4.02 -0.34 2.04 0 0 Z " fill="#381D44" transform="translate(195,282)"/>
<path d="M0 0 C3.96 0 7.92 0 12 0 C12 1.32 12 2.64 12 4 C9.36 4 6.72 4 4 4 C4 5.32 4 6.64 4 8 C6.64 8 9.28 8 12 8 C12 8.99 12 9.98 12 11 C9.36 11 6.72 11 4 11 C4 13.31 4 15.62 4 18 C2.68 18 1.36 18 0 18 C0 12.06 0 6.12 0 0 Z " fill="#2D3043" transform="translate(57,40)"/>
<path d="M0 0 C4.62 0 9.24 0 14 0 C14 1.32 14 2.64 14 4 C12.35 4 10.7 4 9 4 C9 8.62 9 13.24 9 18 C7.68 18 6.36 18 5 18 C5 13.38 5 8.76 5 4 C3.35 4 1.7 4 0 4 C0 2.68 0 1.36 0 0 Z " fill="#35394B" transform="translate(108,40)"/>
<path d="M0 0 C1.32 0 2.64 0 4 0 C4 4.62 4 9.24 4 14 C6.31 14 8.62 14 11 14 C11 15.32 11 16.64 11 18 C7.37 18 3.74 18 0 18 C0 12.06 0 6.12 0 0 Z " fill="#24283B" transform="translate(181,40)"/>
<path d="M0 0 C1.32 0 2.64 0 4 0 C4 4.62 4 9.24 4 14 C6.31 14 8.62 14 11 14 C11 15.32 11 16.64 11 18 C7.37 18 3.74 18 0 18 C0 12.06 0 6.12 0 0 Z " fill="#333748" transform="translate(168,40)"/>
<path d="M0 0 C2.5 0.375 2.5 0.375 5 1 C7.03107031 1.099425 7.03107031 1.099425 9 0.375 C9.66 0.25125 10.32 0.1275 11 0 C13 2 13 2 13 5 C11.35 5.33 9.7 5.66 8 6 C9.32 6 10.64 6 12 6 C12 6.66 12 7.32 12 8 C7.66666667 8 3.33333333 8 -1 8 C-1.625 5.125 -1.625 5.125 -2 2 C-1.34 1.34 -0.68 0.68 0 0 Z " fill="#ADB1B4" transform="translate(153,141)"/>
<path d="M0 0 C3.58630823 1.53345593 5.99482156 3.70375209 8.8125 6.375 C12.69044699 9.94271123 16.29824779 12.64912389 21 15 C21 15.66 21 16.32 21 17 C17.87701358 17.54652262 15.77243585 17.49623152 13.06640625 15.7578125 C7.99030636 11.46341221 3.76049179 6.47621618 0 1 C0 0.67 0 0.34 0 0 Z " fill="#5C2F67" transform="translate(72,337)"/>
<path d="M0 0 C-0.66 0.639375 -1.32 1.27875 -2 1.9375 C-4.44588307 5.68275845 -4.10462827 7.60071999 -3.875 11.90625 C-4 14 -4 14 -6 16.5625 C-6.66 17.036875 -7.32 17.51125 -8 18 C-8.99 17.67 -9.98 17.34 -11 17 C-10.67 16.34 -10.34 15.68 -10 15 C-9.05943332 12.17829997 -8.96406505 10.80750656 -9.125 7.9375 C-9 4 -9 4 -7.3125 1.5 C-4.62023779 -0.24633224 -3.14839906 -0.34982212 0 0 Z " fill="#DBE0EA" transform="translate(207,287)"/>
<path d="M0 0 C3.125 0.375 3.125 0.375 6 1 C6.05399736 2.45792884 6.09279177 3.91642712 6.125 5.375 C6.14820313 6.18710938 6.17140625 6.99921875 6.1953125 7.8359375 C6 10 6 10 4 12 C1.375 12.125 1.375 12.125 -1 12 C-1.33 11.01 -1.66 10.02 -2 9 C0.97 9.495 0.97 9.495 4 10 C4 9.34 4 8.68 4 8 C2.35 7.67 0.7 7.34 -1 7 C-1.625 4.625 -1.625 4.625 -2 2 C-1.34 1.34 -0.68 0.68 0 0 Z " fill="#5E646A" transform="translate(168,117)"/>
<path d="M0 0 C1.32 0 2.64 0 4 0 C4 5.94 4 11.88 4 18 C2.68 18 1.36 18 0 18 C0 12.06 0 6.12 0 0 Z " fill="#22263A" transform="translate(72,40)"/>
<path d="M0 0 C0.66 0.33 1.32 0.66 2 1 C1.67 1.66 1.34 2.32 1 3 C1.62648438 2.97679687 2.25296875 2.95359375 2.8984375 2.9296875 C3.71570313 2.91164063 4.53296875 2.89359375 5.375 2.875 C6.18710937 2.85179687 6.99921875 2.82859375 7.8359375 2.8046875 C10 3 10 3 12 5 C5.88595404 6.85743168 0.41481258 8.42765417 -6 8 C-5.65120368 4.74456771 -4.97866739 3.98126893 -2.4375 1.75 C-1.633125 1.1725 -0.82875 0.595 0 0 Z " fill="#A53B6A" transform="translate(265,307)"/>
<path d="M0 0 C0.66 0 1.32 0 2 0 C2 2.31 2 4.62 2 7 C2.99 7 3.98 7 5 7 C5 4.69 5 2.38 5 0 C5.66 0 6.32 0 7 0 C7.33 0.66 7.66 1.32 8 2 C8.66 1.34 9.32 0.68 10 0 C12.125 0.375 12.125 0.375 14 1 C13.01 1.66 12.02 2.32 11 3 C11.99 3.33 12.98 3.66 14 4 C13.67 5.32 13.34 6.64 13 8 C12.195625 7.814375 11.39125 7.62875 10.5625 7.4375 C9.716875 7.293125 8.87125 7.14875 8 7 C7.67 7.33 7.34 7.66 7 8 C4 8.125 4 8.125 1 8 C0 7 0 7 -0.0625 3.4375 C-0.041875 2.303125 -0.02125 1.16875 0 0 Z " fill="#7B8085" transform="translate(195,141)"/>
<path d="M0 0 C2.19580229 4.21958321 3.9060215 8.61963325 5.68359375 13.02734375 C6.93209831 15.84666709 8.35513233 18.39602581 10 21 C9.01 21 8.02 21 7 21 C5.61328125 19.5390625 5.61328125 19.5390625 4.3125 17.625 C3.87550781 16.99851562 3.43851562 16.37203125 2.98828125 15.7265625 C2 14 2 14 2 12 C1.34 12 0.68 12 0 12 C-3 5.375 -3 5.375 -3 2 C-2.01 2 -1.02 2 0 2 C0 1.34 0 0.68 0 0 Z " fill="#D989D5" transform="translate(66,322)"/>
<path d="M0 0 C0.66 0 1.32 0 2 0 C2 3.96 2 7.92 2 12 C1.34 12 0.68 12 0 12 C-0.33 10.02 -0.66 8.04 -1 6 C-1.99 7.98 -2.98 9.96 -4 12 C-6.7839183 10.60804085 -6.97898997 8.84424221 -8 6 C-8.33 7.98 -8.66 9.96 -9 12 C-9.33 12 -9.66 12 -10 12 C-10 8.37 -10 4.74 -10 1 C-7 2 -7 2 -5.3125 5.0625 C-4.879375 6.031875 -4.44625 7.00125 -4 8 C-2.68 5.36 -1.36 2.72 0 0 Z " fill="#3E464D" transform="translate(139,113)"/>
<path d="M0 0 C1.67542976 0.28604898 3.34385343 0.61781233 5 1 C5 1.33 5 1.66 5 2 C3.35 2 1.7 2 0 2 C0.33 3.32 0.66 4.64 1 6 C2.32 6 3.64 6 5 6 C5.99 4.02 6.98 2.04 8 0 C8.99 0.33 9.98 0.66 11 1 C12.1875 4.5625 12.1875 4.5625 13 8 C10.87527424 8.05386629 8.75016348 8.09273071 6.625 8.125 C4.84996094 8.15980469 4.84996094 8.15980469 3.0390625 8.1953125 C0 8 0 8 -2 6 C-1.44444444 1.44444444 -1.44444444 1.44444444 0 0 Z " fill="#EEE0F9" transform="translate(228,220)"/>
<path d="M0 0 C2.625 0.375 2.625 0.375 5 1 C6.125 5.75 6.125 5.75 5 8 C3.02 8 1.04 8 -1 8 C-1.625 5.125 -1.625 5.125 -2 2 C-1.34 1.34 -0.68 0.68 0 0 Z " fill="#5E656B" transform="translate(174,141)"/>
<path d="M0 0 C2.625 0.375 2.625 0.375 5 1 C5.625 3.375 5.625 3.375 6 6 C4 8 4 8 1.4375 8.1875 C-1 8 -1 8 -2 7 C-2.1875 4.5625 -2.1875 4.5625 -2 2 C-1.34 1.34 -0.68 0.68 0 0 Z " fill="#5A6167" transform="translate(178,117)"/>
<path d="M0 0 C1.67542976 0.28604898 3.34385343 0.61781233 5 1 C6.125 5.75 6.125 5.75 5 8 C2.625 8.125 2.625 8.125 0 8 C-0.66 7.34 -1.32 6.68 -2 6 C-1.44444444 1.44444444 -1.44444444 1.44444444 0 0 Z " fill="#FEF7EC" transform="translate(145,222)"/>
<path d="M0 0 C2.625 0.375 2.625 0.375 5 1 C5.625 3.375 5.625 3.375 6 6 C4 8 4 8 1.4375 8.1875 C-1 8 -1 8 -2 7 C-2.1875 4.5625 -2.1875 4.5625 -2 2 C-1.34 1.34 -0.68 0.68 0 0 Z " fill="#FEF9F1" transform="translate(118,221)"/>
<path d="M0 0 C2.625 0.375 2.625 0.375 5 1 C5.625 3.375 5.625 3.375 6 6 C4 8 4 8 1.4375 8.1875 C-1 8 -1 8 -2 7 C-2.1875 4.5625 -2.1875 4.5625 -2 2 C-1.34 1.34 -0.68 0.68 0 0 Z " fill="#51595F" transform="translate(145,117)"/>
<path d="M0 0 C2.31 0 4.62 0 7 0 C7.66 1.32 8.32 2.64 9 4 C9.66 2.68 10.32 1.36 11 0 C11.66 0.33 12.32 0.66 13 1 C11.68 4.3 10.36 7.6 9 11 C7.68 10.67 6.36 10.34 5 10 C5.66 9.67 6.32 9.34 7 9 C6.67 7.02 6.34 5.04 6 3 C4.68 3 3.36 3 2 3 C1.34 4.32 0.68 5.64 0 7 C0 4.69 0 2.38 0 0 Z " fill="#E0EBEE" transform="translate(162,380)"/>
<path d="M0 0 C7.44025279 0.7085955 12.11415135 4.53934563 17 10 C17 10.66 17 11.32 17 12 C17.66 12.33 18.32 12.66 19 13 C17.68 13.33 16.36 13.66 15 14 C14.67128906 13.48050781 14.34257812 12.96101563 14.00390625 12.42578125 C10.15028876 6.77589762 6.17844234 3.85581335 0 1 C0 0.67 0 0.34 0 0 Z " fill="#DEE2EA" transform="translate(236,302)"/>
<path d="M0 0 C2.5 0.125 2.5 0.125 3.5 1.125 C3.54080783 3.12458364 3.54254356 5.12545254 3.5 7.125 C1.125 7.75 1.125 7.75 -1.5 8.125 C-3.5 6.125 -3.5 6.125 -3.6875 3.5625 C-3.4324847 0.24730106 -3.33009823 0.16650491 0 0 Z " fill="#FEFAF4" transform="translate(133.5,221.875)"/>
<path d="M0 0 C3 2 3 2 3.875 4.375 C4 7 4 7 3 9.1875 C0.26887431 11.66258265 -2.45205452 12.19669159 -6 13 C-5.65066406 12.39671875 -5.30132812 11.7934375 -4.94140625 11.171875 C-4.25884766 9.97304688 -4.25884766 9.97304688 -3.5625 8.75 C-3.11003906 7.96109375 -2.65757812 7.1721875 -2.19140625 6.359375 C-1.10688398 4.21166532 -0.46851284 2.34794939 0 0 Z " fill="#E6E9EE" transform="translate(195,293)"/>
<path d="M0 0 C1.32 0 2.64 0 4 0 C4 3.96 4 7.92 4 12 C2.68 12 1.36 12 0 12 C0 8.04 0 4.08 0 0 Z " fill="#2C2F41" transform="translate(266,40)"/>
<path d="M0 0 C2.97 0 5.94 0 9 0 C9 0.66 9 1.32 9 2 C8.01 2 7.02 2 6 2 C6 5.3 6 8.6 6 12 C5.01 11.67 4.02 11.34 3 11 C3 8.03 3 5.06 3 2 C2.01 2 1.02 2 0 2 C0 1.34 0 0.68 0 0 Z " fill="#C1D8DD" transform="translate(153,376)"/>
<path d="M0 0 C0.66 0 1.32 0 2 0 C2.33 1.32 2.66 2.64 3 4 C4.32 4.33 5.64 4.66 7 5 C7 7.31 7 9.62 7 12 C6.34 12 5.68 12 5 12 C5 10.02 5 8.04 5 6 C4.01 6 3.02 6 2 6 C2 7.98 2 9.96 2 12 C1.34 12 0.68 12 0 12 C0 8.04 0 4.08 0 0 Z " fill="#666D73" transform="translate(106,113)"/>
<path d="M0 0 C2.625 0.375 2.625 0.375 5 1 C5 2.32 5 3.64 5 5 C3.35 5 1.7 5 0 5 C0 5.66 0 6.32 0 7 C1.65 6.67 3.3 6.34 5 6 C4.67 6.66 4.34 7.32 4 8 C2.33388095 8.042721 0.66617115 8.04063832 -1 8 C-2 7 -2 7 -2.1875 4.5625 C-2 2 -2 2 0 0 Z " fill="#5A6167" transform="translate(127,141)"/>
<path d="M0 0 C3.875 0.875 3.875 0.875 5 2 C5.04080783 3.99958364 5.04254356 6.00045254 5 8 C3.02 8 1.04 8 -1 8 C-1 4.88742431 -0.82638376 2.89234315 0 0 Z " fill="#787E83" transform="translate(205,117)"/>
<path d="M0 0 C2.625 0.375 2.625 0.375 5 1 C5 2.32 5 3.64 5 5 C3.35 5 1.7 5 0 5 C0 5.66 0 6.32 0 7 C1.65 6.67 3.3 6.34 5 6 C4.67 6.66 4.34 7.32 4 8 C2.33388095 8.042721 0.66617115 8.04063832 -1 8 C-2 7 -2 7 -2.1875 4.5625 C-2 2 -2 2 0 0 Z " fill="#70767B" transform="translate(247,117)"/>
<path d="M0 0 C1.98 0 3.96 0 6 0 C6 2.64 6 5.28 6 8 C4.02 8 2.04 8 0 8 C0 5.36 0 2.72 0 0 Z " fill="#EEDCF7" transform="translate(209,220)"/>
<path d="M0 0 C1.65 0 3.3 0 5 0 C5.82638376 2.89234315 6 4.88742431 6 8 C5.34 8 4.68 8 4 8 C3.67 7.34 3.34 6.68 3 6 C2.67 6.66 2.34 7.32 2 8 C1.34 8 0.68 8 0 8 C0 5.36 0 2.72 0 0 Z " fill="#F3E6FA" transform="translate(202,220)"/>
<path d="M0 0 C2.125 0.375 2.125 0.375 4 1 C4.33 2.32 4.66 3.64 5 5 C3.35 5.33 1.7 5.66 0 6 C1.65 6 3.3 6 5 6 C4.67 6.66 4.34 7.32 4 8 C2.33388095 8.042721 0.66617115 8.04063832 -1 8 C-2 7 -2 7 -2.1875 4.5625 C-2 2 -2 2 0 0 Z " fill="#4F565C" transform="translate(117,117)"/>
<path d="M0 0 C1.98 0 3.96 0 6 0 C5.814375 0.763125 5.62875 1.52625 5.4375 2.3125 C4.77180827 5.08967375 4.77180827 5.08967375 6 8 C4.02 8 2.04 8 0 8 C0 5.36 0 2.72 0 0 Z " fill="#EEE0F8" transform="translate(216,220)"/>
<path d="M0 0 C2.125 0.375 2.125 0.375 4 1 C4.33 2.32 4.66 3.64 5 5 C3.35 5.33 1.7 5.66 0 6 C1.32 6 2.64 6 4 6 C4 6.66 4 7.32 4 8 C2.33388095 8.042721 0.66617115 8.04063832 -1 8 C-2 7 -2 7 -2.1875 4.5625 C-2 2 -2 2 0 0 Z " fill="#6B7177" transform="translate(161,141)"/>
<path d="M0 0 C1.67542976 0.28604898 3.34385343 0.61781233 5 1 C5 3.31 5 5.62 5 8 C3.35 8 1.7 8 0 8 C-0.33 6.68 -0.66 5.36 -1 4 C-0.34 3.67 0.32 3.34 1 3 C0.34 2.34 -0.32 1.68 -1 1 C-0.67 0.67 -0.34 0.34 0 0 Z " fill="#50585E" transform="translate(159,117)"/>
<path d="M0 0 C3.69230769 0.69230769 3.69230769 0.69230769 5 2 C5.04080783 3.99958364 5.04254356 6.00045254 5 8 C3.02 8 1.04 8 -1 8 C-1.33 6.68 -1.66 5.36 -2 4 C-1.01 4.33 -0.02 4.66 1 5 C0.67 5.66 0.34 6.32 0 7 C0.66 6.67 1.32 6.34 2 6 C2.65213292 3.97536745 2.65213292 3.97536745 3 2 C1.68 1.67 0.36 1.34 -1 1 C-0.67 0.67 -0.34 0.34 0 0 Z " fill="#63696F" transform="translate(233,117)"/>
<path d="M0 0 C0 0.66 0 1.32 0 2 C-0.639375 2.28875 -1.27875 2.5775 -1.9375 2.875 C-4.15206079 3.82823451 -4.15206079 3.82823451 -5 6 C-6.32 6 -7.64 6 -9 6 C-8.75 4.125 -8.75 4.125 -8 2 C-5.06004981 -0.02755186 -3.72295997 0 0 0 Z " fill="#DDE3EB" transform="translate(249,282)"/>
<path d="M0 0 C1.1055189 0.93590504 2.20935453 1.87379858 3.3125 2.8125 C3.92738281 3.33457031 4.54226562 3.85664063 5.17578125 4.39453125 C6.85424679 5.87172469 8.43882034 7.40039131 10 9 C7.75 9.3125 7.75 9.3125 5 9 C2.15224799 6.15224799 0.83015254 3.88511389 0 0 Z " fill="#CF82D6" transform="translate(77,345)"/>
<path d="M0 0 C1.65 0 3.3 0 5 0 C5 1.65 5 3.3 5 5 C4.01 5 3.02 5 2 5 C2 5.99 2 6.98 2 8 C1.34 8 0.68 8 0 8 C0 5.36 0 2.72 0 0 Z " fill="#F3E4F9" transform="translate(196,220)"/>
<path d="M0 0 C0.99 0.99 1.98 1.98 3 3 C3.99 2.01 4.98 1.02 6 0 C5.77139942 1.46184058 5.51629608 2.91955419 5.25 4.375 C5.04117188 5.59316406 5.04117188 5.59316406 4.828125 6.8359375 C4 9 4 9 1.921875 10.2890625 C0.97054687 10.64097656 0.97054687 10.64097656 0 11 C0 10.34 0 9.68 0 9 C0.66 9 1.32 9 2 9 C1.34 6.03 0.68 3.06 0 0 Z " fill="#525A60" transform="translate(88,118)"/>
<path d="M0 0 C0 0.66 0 1.32 0 2 C-0.99 2.495 -0.99 2.495 -2 3 C-1.01 3.66 -0.02 4.32 1 5 C0.67 5.99 0.34 6.98 0 8 C-1.65 8 -3.3 8 -5 8 C-5 7.34 -5 6.68 -5 6 C-3.68 6.33 -2.36 6.66 -1 7 C-1 6.34 -1 5.68 -1 5 C-2.32 4.67 -3.64 4.34 -5 4 C-5 3.01 -5 2.02 -5 1 C-3 0 -3 0 0 0 Z " fill="#5F676C" transform="translate(225,117)"/>
<path d="M0 0 C0.66 0 1.32 0 2 0 C2 0.66 2 1.32 2 2 C2.66 2 3.32 2 4 2 C4 2.66 4 3.32 4 4 C3.34 4 2.68 4 2 4 C2 5.65 2 7.3 2 9 C2.66 9.33 3.32 9.66 4 10 C2.68 9.67 1.36 9.34 0 9 C-1.125 2.25 -1.125 2.25 0 0 Z " fill="#6A7076" transform="translate(101,115)"/>
<path d="M0 0 C0.66 0 1.32 0 2 0 C2 0.66 2 1.32 2 2 C2.66 2 3.32 2 4 2 C4 2.66 4 3.32 4 4 C3.34 4 2.68 4 2 4 C2 5.65 2 7.3 2 9 C2.66 9.33 3.32 9.66 4 10 C2.68 9.67 1.36 9.34 0 9 C-1.125 2.25 -1.125 2.25 0 0 Z " fill="#6A7176" transform="translate(240,115)"/>
<path d="M0 0 C1.32 0.33 2.64 0.66 4 1 C4 3.31 4 5.62 4 8 C3.01 7.67 2.02 7.34 1 7 C0.67 4.69 0.34 2.38 0 0 Z " fill="#F4EAEF" transform="translate(167,280)"/>
<path d="M0 0 C0.66 0 1.32 0 2 0 C2 3.96 2 7.92 2 12 C1.34 12 0.68 12 0 12 C-0.19401633 10.18818595 -0.38004375 8.37551468 -0.5625 6.5625 C-0.66691406 5.55316406 -0.77132812 4.54382813 -0.87890625 3.50390625 C-0.91886719 2.67761719 -0.95882812 1.85132812 -1 1 C-0.67 0.67 -0.34 0.34 0 0 Z " fill="#646B70" transform="translate(139,113)"/>
<path d="M0 0 C2.875 -0.125 2.875 -0.125 6 0 C6.66 0.66 7.32 1.32 8 2 C5.36 2.66 2.72 3.32 0 4 C0 2.68 0 1.36 0 0 Z " fill="#B95988" transform="translate(269,310)"/>
<path d="M0 0 C0.66 0 1.32 0 2 0 C2 1.98 2 3.96 2 6 C2.99 6 3.98 6 5 6 C5 6.66 5 7.32 5 8 C3.35 8 1.7 8 0 8 C0 5.36 0 2.72 0 0 Z " fill="#EDE2FA" transform="translate(248,220)"/>
<path d="M0 0 C0.66 0 1.32 0 2 0 C2 1.98 2 3.96 2 6 C2.99 6 3.98 6 5 6 C5 6.66 5 7.32 5 8 C3.35 8 1.7 8 0 8 C0 5.36 0 2.72 0 0 Z " fill="#F1E7FB" transform="translate(242,220)"/>
<path d="M0 0 C2.475 0.495 2.475 0.495 5 1 C5 1.99 5 2.98 5 4 C3.35 4.33 1.7 4.66 0 5 C0 3.35 0 1.7 0 0 Z " fill="#E8E8E9" transform="translate(168,119)"/>
<path d="M0 0 C1.32 0 2.64 0 4 0 C3.67 1.65 3.34 3.3 3 5 C1.68 4.67 0.36 4.34 -1 4 C-0.67 2.68 -0.34 1.36 0 0 Z " fill="#F5F5F6" transform="translate(145,119)"/>
<path d="M0 0 C3.3 0 6.6 0 10 0 C10 0.99 10 1.98 10 3 C6.6875 3.1875 6.6875 3.1875 3 3 C2.01 2.01 1.02 1.02 0 0 Z " fill="#DFBFCD" transform="translate(174,292)"/>
<path d="M0 0 C1.65 0 3.3 0 5 0 C5 0.66 5 1.32 5 2 C4.01 2 3.02 2 2 2 C2 3.98 2 5.96 2 8 C1.34 8 0.68 8 0 8 C0 5.36 0 2.72 0 0 Z " fill="#757B80" transform="translate(152,117)"/>
<path d="M0 0 C1.32 0 2.64 0 4 0 C3.67 1.65 3.34 3.3 3 5 C1.68 4.67 0.36 4.34 -1 4 C-0.67 2.68 -0.34 1.36 0 0 Z " fill="#F3F4F4" transform="translate(178,119)"/>
<path d="M0 0 C1.32 0 2.64 0 4 0 C4 1.65 4 3.3 4 5 C2.68 4.67 1.36 4.34 0 4 C0 2.68 0 1.36 0 0 Z " fill="#F7F7F7" transform="translate(174,143)"/>
<path d="M0 0 C1.67542976 0.28604898 3.34385343 0.61781233 5 1 C5 1.99 5 2.98 5 4 C3.35 4 1.7 4 0 4 C-0.33 3.01 -0.66 2.02 -1 1 C-0.67 0.67 -0.34 0.34 0 0 Z " fill="#898E92" transform="translate(127,141)"/>
<path d="M0 0 C1.32 0.33 2.64 0.66 4 1 C4 3.31 4 5.62 4 8 C3.34 8 2.68 8 2 8 C2 6.02 2 4.04 2 2 C1.34 2 0.68 2 0 2 C0 1.34 0 0.68 0 0 Z " fill="#747A7F" transform="translate(109,117)"/>
<path d="M0 0 C4 4.625 4 4.625 4 8 C2.35 6.35 0.7 4.7 -1 3 C-0.67 2.01 -0.34 1.02 0 0 Z " fill="#D182D0" transform="translate(71,336)"/>
<path d="M0 0 C0.66 0.66 1.32 1.32 2 2 C-2.455 2.495 -2.455 2.495 -7 3 C-7.33 2.34 -7.66 1.68 -8 1 C-5.23749964 -0.38125018 -3.05268901 -0.19079306 0 0 Z " fill="#DEE3EC" transform="translate(267,296)"/>
<path d="M0 0 C0.66 0 1.32 0 2 0 C2.33 0.66 2.66 1.32 3 2 C3.99 2.33 4.98 2.66 6 3 C6 3.66 6 4.32 6 5 C4.02 5.33 2.04 5.66 0 6 C0 4.02 0 2.04 0 0 Z " fill="#E3E4E5" transform="translate(218,119)"/>
<path d="M0 0 C1.98 0.495 1.98 0.495 4 1 C4 1.99 4 2.98 4 4 C2.35 4 0.7 4 -1 4 C-0.67 2.68 -0.34 1.36 0 0 Z " fill="#92979B" transform="translate(117,117)"/>
<path d="M0 0 C-0.33 1.32 -0.66 2.64 -1 4 C-2.32 4 -3.64 4 -5 4 C-5 3.01 -5 2.02 -5 1 C-3 0 -3 0 0 0 Z " fill="#9DA1A4" transform="translate(163,120)"/>
</svg>
