<?xml version="1.0" encoding="UTF-8"?>
<svg version="1.1" xmlns="http://www.w3.org/2000/svg" width="24" height="24">
<path d="M0 0 C7.92 0 15.84 0 24 0 C24 7.92 24 15.84 24 24 C16.08 24 8.16 24 0 24 C0 16.08 0 8.16 0 0 Z " fill="#45484C" transform="translate(0,0)"/>
<path d="M0 0 C7.92 0 15.84 0 24 0 C24 7.92 24 15.84 24 24 C16.08 24 8.16 24 0 24 C0 16.08 0 8.16 0 0 Z M3.65625 4.171875 C1.42427523 6.63546979 1.35558857 8.27165616 1.25 11.5625 C1.51257556 15.0510039 1.75773675 16.64525739 3.75 19.5625 C4.4925 20.036875 5.235 20.51125 6 21 C6.928125 21.6496875 6.928125 21.6496875 7.875 22.3125 C12.0892861 23.6759455 15.38427128 22.23945006 19.375 20.6875 C22.457438 17.53167062 22.57921541 16.36194026 22.875 12.0625 C22.67576646 7.66842958 22.67576646 7.66842958 20.3359375 4.10546875 C14.31865705 0.19536329 9.65240831 0.27884684 3.65625 4.171875 Z " fill="#EDEFEF" transform="translate(0,0)"/>
<path d="M0 0 C5.00884344 0.47703271 8.43412212 1.34922026 12 5 C12.51708108 9.04508217 12.34432368 12.94463217 12 17 C9.01576614 18.21744864 6.14981186 19.30004181 3 20 C3 17.36 3 14.72 3 12 C3.99 11.67 4.98 11.34 6 11 C6 11.66 6 12.32 6 13 C6.66 13 7.32 13 8 13 C8 11.35 8 9.7 8 8 C7.236875 7.71125 6.47375 7.4225 5.6875 7.125 C3 6 3 6 0 4 C0 2.68 0 1.36 0 0 Z " fill="#494D4E" transform="translate(10,1)"/>
<path d="M0 0 C7.92 0 15.84 0 24 0 C24 5.28 24 10.56 24 16 C23.67 16 23.34 16 23 16 C22.93683594 15.32453125 22.87367187 14.6490625 22.80859375 13.953125 C22.18903891 8.74773998 22.18903891 8.74773998 19.51953125 4.41015625 C16.6084665 2.60439644 14.27838294 1.99443234 10.875 2.0625 C6.58185067 3.38938391 6.58185067 3.38938391 3 6 C1.97526153 9.29190597 1.42943997 12.58370886 1 16 C0.67 16 0.34 16 0 16 C0 10.72 0 5.44 0 0 Z " fill="#F7F9FA" transform="translate(0,0)"/>
<path d="M0 0 C5.75 1.75 5.75 1.75 8 4 C8.26991906 6.68839385 8.08737357 9.29141936 8 12 C2.25 9.25 2.25 9.25 0 7 C-0.125 3.375 -0.125 3.375 0 0 Z " fill="#F3F6F7" transform="translate(3,9)"/>
<path d="M0 0 C0.66 0 1.32 0 2 0 C2.36471664 6.44332724 2.36471664 6.44332724 0.8125 8.8125 C-1.36190579 10.23711069 -3.55187745 11.13984883 -6 12 C-6 9.36 -6 6.72 -6 4 C-5.01 3.67 -4.02 3.34 -3 3 C-3 3.66 -3 4.32 -3 5 C-2.34 5 -1.68 5 -1 5 C-0.67 3.35 -0.34 1.7 0 0 Z " fill="#F2F5F6" transform="translate(19,9)"/>
<path d="M0 0 C0.66 0 1.32 0 2 0 C2.33 2.31 2.66 4.62 3 7 C3.99 6.67 4.98 6.34 6 6 C6.33 6.66 6.66 7.32 7 8 C4.34271875 9.73745313 3.10399645 10.00831972 -0.125 9.75 C-3 9 -3 9 -5 7 C-4.34 6.67 -3.68 6.34 -3 6 C-2.34 6.33 -1.68 6.66 -1 7 C-0.67 4.69 -0.34 2.38 0 0 Z " fill="#55595C" transform="translate(11,13)"/>
<path d="M0 0 C3.48539917 0.64544429 6.02819057 2.10134397 9 4 C8.67 4.66 8.34 5.32 8 6 C4.26512223 5.5020163 2.18762365 5.12508244 -1 3 C-0.67 2.01 -0.34 1.02 0 0 Z " fill="#E4E8EB" transform="translate(6,5)"/>
<path d="M0 0 C3.73487777 0.4979837 5.81237635 0.87491756 9 3 C9 3.66 9 4.32 9 5 C5.26512223 4.5020163 3.18762365 4.12508244 0 2 C0 1.34 0 0.68 0 0 Z " fill="#EFF2F4" transform="translate(10,3)"/>
</svg>
