<?xml version="1.0" encoding="UTF-8"?>
<svg version="1.1" xmlns="http://www.w3.org/2000/svg" width="50" height="50">
<path d="M0 0 C16.5 0 33 0 50 0 C50 16.5 50 33 50 50 C33.5 50 17 50 0 50 C0 33.5 0 17 0 0 Z " fill="#8A6E6C" transform="translate(0,0)"/>
<path d="M0 0 C16.5 0 33 0 50 0 C50 2.31 50 4.62 50 7 C49.7215625 6.071875 49.7215625 6.071875 49.4375 5.125 C47.28562767 1.94397134 44.62466237 1.80548053 41 1 C40.34 3.97 39.68 6.94 39 10 C35.04 10.66 31.08 11.32 27 12 C26.67 12.99 26.34 13.98 26 15 C25.34 15 24.68 15 24 15 C24.33 16.98 24.66 18.96 25 21 C26.32 21.33 27.64 21.66 29 22 C28.9175 21.278125 28.835 20.55625 28.75 19.8125 C29.08981203 15.9896147 30.15751732 14.550946 33 12 C36.75 11.6875 36.75 11.6875 40 12 C40 13.32 40 14.64 40 16 C37.36 16 34.72 16 32 16 C32.495 16.45375 32.99 16.9075 33.5 17.375 C35 19 35 19 35 21 C36.32 21 37.64 21 39 21 C39.125 26.75 39.125 26.75 38 29 C36.02 28.67 34.04 28.34 32 28 C31.67 28.66 31.34 29.32 31 30 C31 29.34 31 28.68 31 28 C30.01 28 29.02 28 28 28 C28 28.66 28 29.32 28 30 C26.68 30 25.36 30 24 30 C23.67 31.65 23.34 33.3 23 35 C23.99 35 24.98 35 26 35 C25.8125 36.875 25.8125 36.875 25 39 C20.64621236 41.77059213 16.84009519 40.82035512 12 40 C12 39.34 12 38.68 12 38 C11.34 38 10.68 38 10 38 C9.67 37.34 9.34 36.68 9 36 C8.38125 35.896875 7.7625 35.79375 7.125 35.6875 C5 35 5 35 3.38549805 32.8293457 C1.81035383 29.6127208 1.65224807 27.60387546 1.70703125 24.04296875 C1.71669922 22.93115234 1.72636719 21.81933594 1.73632812 20.67382812 C1.76146484 19.52333984 1.78660156 18.37285156 1.8125 17.1875 C1.82603516 16.01767578 1.83957031 14.84785156 1.85351562 13.64257812 C1.88879722 10.761248 1.9380972 7.88086096 2 5 C1.01 5.495 1.01 5.495 0 6 C0 4.02 0 2.04 0 0 Z " fill="#F3B294" transform="translate(0,0)"/>
<path d="M0 0 C2.12438339 -0.08078641 4.2496323 -0.13909141 6.375 -0.1875 C7.55835938 -0.22230469 8.74171875 -0.25710937 9.9609375 -0.29296875 C11.46527344 -0.14794922 11.46527344 -0.14794922 13 0 C14.94268841 2.91403262 16.46395304 5.85808576 18 9 C18.99 8.34 19.98 7.68 21 7 C23.24828052 11.49656104 23.16682272 15.07872966 23 20 C22.34 20.33 21.68 20.66 21 21 C21 18.03 21 15.06 21 12 C17.37 12.33 13.74 12.66 10 13 C10.99 14.32 11.98 15.64 13 17 C11.7934375 17.680625 11.7934375 17.680625 10.5625 18.375 C7.91143428 19.74725665 7.91143428 19.74725665 7 22 C8.65 22 10.3 22 12 22 C12.33 23.32 12.66 24.64 13 26 C12.34 26.33 11.68 26.66 11 27 C12.98 27.33 14.96 27.66 17 28 C17.66 26.68 18.32 25.36 19 24 C19.99 24 20.98 24 22 24 C22.33 25.98 22.66 27.96 23 30 C22.34 30.33 21.68 30.66 21 31 C20.34 30.67 19.68 30.34 19 30 C19 30.66 19 31.32 19 32 C18.34 32 17.68 32 17 32 C17 32.99 17 33.98 17 35 C18.65 35 20.3 35 22 35 C21.67 36.65 21.34 38.3 21 40 C17.62182575 40.84454356 15.32534757 41.10844919 12 40 C12 39.34 12 38.68 12 38 C11.34 38 10.68 38 10 38 C9.67 37.34 9.34 36.68 9 36 C8.38125 35.896875 7.7625 35.79375 7.125 35.6875 C5 35 5 35 3.38549805 32.8293457 C1.81035383 29.6127208 1.65224807 27.60387546 1.70703125 24.04296875 C1.71669922 22.93115234 1.72636719 21.81933594 1.73632812 20.67382812 C1.76146484 19.52333984 1.78660156 18.37285156 1.8125 17.1875 C1.82603516 16.01767578 1.83957031 14.84785156 1.85351562 13.64257812 C1.88879722 10.761248 1.9380972 7.88086096 2 5 C1.01 5.495 1.01 5.495 0 6 C0 4.02 0 2.04 0 0 Z " fill="#FBC09F" transform="translate(0,0)"/>
<path d="M0 0 C0.33 0 0.66 0 1 0 C0.97643433 1.14214966 0.97643433 1.14214966 0.95239258 2.30737305 C0.88991547 5.7673394 0.85096828 9.2271869 0.8125 12.6875 C0.78736328 13.88568359 0.76222656 15.08386719 0.73632812 16.31835938 C0.72666016 17.47529297 0.71699219 18.63222656 0.70703125 19.82421875 C0.6913208 20.88729248 0.67561035 21.95036621 0.65942383 23.0456543 C1.04927143 26.42740762 1.97283429 28.28844797 4 31 C6.08533633 31.87822312 6.08533633 31.87822312 8 32 C8 32.66 8 33.32 8 34 C8.66 34 9.32 34 10 34 C10 34.66 10 35.32 10 36 C16.08035815 37.04390437 16.08035815 37.04390437 22 36 C23.32 36 24.64 36 26 36 C26.103125 36.78375 26.20625 37.5675 26.3125 38.375 C26.77595022 41.33045181 26.77595022 41.33045181 30 43 C30 43.99 30 44.98 30 46 C19.44 46 8.88 46 -2 46 C-2.04584509 39.77016233 -2.08569026 33.54090695 -2.10986328 27.31103516 C-2.11993751 25.1905723 -2.13359733 23.07012339 -2.15087891 20.94970703 C-2.17506489 17.90654057 -2.18646869 14.86355734 -2.1953125 11.8203125 C-2.20563507 10.86818878 -2.21595764 9.91606506 -2.22659302 8.93508911 C-2.22674408 8.05432709 -2.22689514 7.17356506 -2.22705078 6.26611328 C-2.231492 5.48889923 -2.23593323 4.71168518 -2.24050903 3.91091919 C-2 2 -2 2 0 0 Z " fill="#E99A80" transform="translate(2,4)"/>
<path d="M0 0 C12.21 0 24.42 0 37 0 C37 2.31 37 4.62 37 7 C36.7215625 6.071875 36.7215625 6.071875 36.4375 5.125 C34.28562767 1.94397134 31.62466237 1.80548053 28 1 C27.34 3.97 26.68 6.94 26 10 C22.04 10.66 18.08 11.32 14 12 C13.67 12.99 13.34 13.98 13 15 C12.34 15 11.68 15 11 15 C11 16.65 11 18.3 11 20 C10.67 20 10.34 20 10 20 C9.87625 18.7625 9.7525 17.525 9.625 16.25 C9.24253695 13.1237803 8.69450477 10.71120763 7 8 C6.34 8.66 5.68 9.32 5 10 C4.01 8.02 3.02 6.04 2 4 C1.34 4 0.68 4 0 4 C0 2.68 0 1.36 0 0 Z " fill="#FABBA3" transform="translate(13,0)"/>
<path d="M0 0 C2.12438339 -0.08078641 4.2496323 -0.13909141 6.375 -0.1875 C7.55835938 -0.22230469 8.74171875 -0.25710937 9.9609375 -0.29296875 C11.46527344 -0.14794922 11.46527344 -0.14794922 13 0 C14.94268841 2.91403262 16.46395304 5.85808576 18 9 C18.99 8.34 19.98 7.68 21 7 C23.24828052 11.49656104 23.16682272 15.07872966 23 20 C22.34 20.33 21.68 20.66 21 21 C21 18.03 21 15.06 21 12 C14.67721029 12.32626495 9.44535609 12.61504892 4 16 C2.33657163 14.33657163 2.63951903 12.2174291 2.4375 9.9375 C2.35371094 9.01839844 2.26992188 8.09929688 2.18359375 7.15234375 C2.09271484 6.08693359 2.09271484 6.08693359 2 5 C1.01 5.495 1.01 5.495 0 6 C0 4.02 0 2.04 0 0 Z " fill="#FCCCB1" transform="translate(0,0)"/>
<path d="M0 0 C1.0725 0.103125 2.145 0.20625 3.25 0.3125 C3.25 1.6325 3.25 2.9525 3.25 4.3125 C0.61 4.3125 -2.03 4.3125 -4.75 4.3125 C-4.255 4.76625 -3.76 5.22 -3.25 5.6875 C-1.75 7.3125 -1.75 7.3125 -1.75 9.3125 C-0.43 9.3125 0.89 9.3125 2.25 9.3125 C2.375 15.0625 2.375 15.0625 1.25 17.3125 C-0.73 16.9825 -2.71 16.6525 -4.75 16.3125 C-5.08 16.9725 -5.41 17.6325 -5.75 18.3125 C-5.75 17.6525 -5.75 16.9925 -5.75 16.3125 C-6.74 16.3125 -7.73 16.3125 -8.75 16.3125 C-8.75 16.9725 -8.75 17.6325 -8.75 18.3125 C-10.07 18.3125 -11.39 18.3125 -12.75 18.3125 C-14.35725635 15.09798731 -13.80748185 11.87637464 -13.75 8.3125 C-12.76 9.7975 -12.76 9.7975 -11.75 11.3125 C-11.42 10.6525 -11.09 9.9925 -10.75 9.3125 C-9.76 9.6425 -8.77 9.9725 -7.75 10.3125 C-7.87375 9.2296875 -7.87375 9.2296875 -8 8.125 C-7.52335392 2.76273156 -5.32647049 0.44387254 0 0 Z " fill="#9E7B7A" transform="translate(36.75,11.6875)"/>
<path d="M0 0 C0.99 0 1.98 0 3 0 C3.33 4.29 3.66 8.58 4 13 C4.33 11.02 4.66 9.04 5 7 C5.66 7 6.32 7 7 7 C7.57293869 16.73995772 7.57293869 16.73995772 4 21 C3.34 21 2.68 21 2 21 C2 20.01 2 19.02 2 18 C1.01 17.34 0.02 16.68 -1 16 C-0.34 13.69 0.32 11.38 1 9 C0.01 9.33 -0.98 9.66 -2 10 C-1.7525 10.7425 -1.505 11.485 -1.25 12.25 C-1.1675 13.1575 -1.085 14.065 -1 15 C-2.9375 17.3125 -2.9375 17.3125 -5 19 C-4.67 17.02 -4.34 15.04 -4 13 C-4.99 13 -5.98 13 -7 13 C-7 11.68 -7 10.36 -7 9 C-6.01 9 -5.02 9 -4 9 C-3.71125 8.071875 -3.4225 7.14375 -3.125 6.1875 C-2 3 -2 3 0 0 Z " fill="#68636B" transform="translate(43,27)"/>
<path d="M0 0 C1.485 0.99 1.485 0.99 3 2 C3.33 1.67 3.66 1.34 4 1 C6.4375 0.75 6.4375 0.75 9 1 C9.66 1.99 10.32 2.98 11 4 C10.175 4.433125 9.35 4.86625 8.5 5.3125 C7.2625 6.1478125 7.2625 6.1478125 6 7 C6 7.99 6 8.98 6 10 C5.34 10 4.68 10 4 10 C4.165 10.721875 4.33 11.44375 4.5 12.1875 C4.97587119 14.86427545 5.077443 17.28949487 5 20 C5.99 20 6.98 20 8 20 C8 20.66 8 21.32 8 22 C8.66 22 9.32 22 10 22 C10 22.99 10 23.98 10 25 C9.34 25 8.68 25 8 25 C7.67 24.34 7.34 23.68 7 23 C6.38125 22.896875 5.7625 22.79375 5.125 22.6875 C3 22 3 22 1.37890625 20.0078125 C-0.47619979 15.96126392 -0.33094749 12.57552195 -0.1875 8.1875 C-0.17396484 7.39923828 -0.16042969 6.61097656 -0.14648438 5.79882812 C-0.11133456 3.86558831 -0.05753361 1.93270318 0 0 Z " fill="#FAB995" transform="translate(2,13)"/>
<path d="M0 0 C6.6 0 13.2 0 20 0 C20 2.31 20 4.62 20 7 C19.814375 6.38125 19.62875 5.7625 19.4375 5.125 C17.28562767 1.94397134 14.62466237 1.80548053 11 1 C10.34 3.97 9.68 6.94 9 10 C7.68 10 6.36 10 5 10 C4.67 9.34 4.34 8.68 4 8 C2.35 8 0.7 8 -1 8 C-0.67 5.36 -0.34 2.72 0 0 Z " fill="#D49788" transform="translate(30,0)"/>
<path d="M0 0 C2.77141089 3.11783725 4 4.79846504 4 9 C-0.21878192 9.19622241 -3.17010894 8.80230168 -7 7 C-7 6.67 -7 6.34 -7 6 C-4.69 6 -2.38 6 0 6 C0 4.68 0 3.36 0 2 C-4.88557347 2.24668934 -4.88557347 2.24668934 -8.875 4.75 C-10.08863527 7.17727054 -10.62769367 9.31939441 -11 12 C-11.99 12.33 -12.98 12.66 -14 13 C-14.66 13.66 -15.32 14.32 -16 15 C-16.08121924 13.39667209 -16.13929134 11.79215974 -16.1875 10.1875 C-16.22230469 9.29417969 -16.25710937 8.40085937 -16.29296875 7.48046875 C-16 5 -16 5 -14.625 3.25 C-10.05720403 -0.26368921 -5.55797781 -0.70577496 0 0 Z " fill="#794E48" transform="translate(40,10)"/>
<path d="M0 0 C0.33 0 0.66 0 1 0 C1.0247345 4.07510438 1.04287637 8.15017964 1.05493164 12.2253418 C1.05995777 13.61141725 1.06677966 14.99748741 1.07543945 16.38354492 C1.08758018 18.37676715 1.09271021 20.37002819 1.09765625 22.36328125 C1.10289307 23.56251221 1.10812988 24.76174316 1.11352539 25.99731445 C1 29 1 29 0 32 C0.99 32.66 1.98 33.32 3 34 C2.67 36.31 2.34 38.62 2 41 C1.01 41 0.02 41 -1 41 C-2.60349894 37.79300212 -2.1630236 34.30398791 -2.16796875 30.78125 C-2.17129715 29.96756958 -2.17462555 29.15388916 -2.17805481 28.31555176 C-2.18312075 26.5939999 -2.18546324 24.87243821 -2.18530273 23.15087891 C-2.18749123 20.51057877 -2.20565567 17.87069503 -2.22460938 15.23046875 C-2.22754291 13.55989727 -2.22952797 11.88932379 -2.23046875 10.21875 C-2.24124702 9.02965027 -2.24124702 9.02965027 -2.25224304 7.81652832 C-2.22882682 2.22882682 -2.22882682 2.22882682 0 0 Z " fill="#8F5A44" transform="translate(2,4)"/>
<path d="M0 0 C3.68268739 0.49766046 5.65028767 1.06285959 8 4 C9.25248502 6.50497004 9.11374406 8.20853274 9.09765625 11.0078125 C9.09443359 11.99394531 9.09121094 12.98007813 9.08789062 13.99609375 C9.07951172 15.02863281 9.07113281 16.06117187 9.0625 17.125 C9.05798828 18.16527344 9.05347656 19.20554687 9.04882812 20.27734375 C9.03701952 22.85161962 9.02055075 25.42578146 9 28 C8.34 28 7.68 28 7 28 C6.34 21.73 5.68 15.46 5 9 C4.34 9 3.68 9 3 9 C2 6 1 3 0 0 Z " fill="#46464B" transform="translate(41,1)"/>
<path d="M0 0 C3 0 3 0 4.5 1.4375 C4.995 1.953125 5.49 2.46875 6 3 C6.99 3.33 7.98 3.66 9 4 C9 4.66 9 5.32 9 6 C9.66 6 10.32 6 11 6 C11 6.66 11 7.32 11 8 C13.31 8.33 15.62 8.66 18 9 C17.01 9.33 16.02 9.66 15 10 C15 10.66 15 11.32 15 12 C12.525 11.01 12.525 11.01 10 10 C10 11.65 10 13.3 10 15 C8.125 14.75 8.125 14.75 6 14 C3.97244814 11.06004981 4 9.72295997 4 6 C2.68 5.34 1.36 4.68 0 4 C0 2.68 0 1.36 0 0 Z " fill="#EAA182" transform="translate(1,32)"/>
<path d="M0 0 C1.32 0.66 2.64 1.32 4 2 C4 3.65 4 5.3 4 7 C4.66 7 5.32 7 6 7 C6.33895656 8.72807318 6.67091525 10.45751974 7 12.1875 C7.185625 13.15042969 7.37125 14.11335938 7.5625 15.10546875 C7.96877612 17.7934206 8.07933572 20.28771019 8 23 C6.68 23 5.36 23 4 23 C3.97421875 22.34773438 3.9484375 21.69546875 3.921875 21.0234375 C3.53578529 15.07414606 2.48212242 11.9423673 -1 7 C-1.3125 3.6875 -1.3125 3.6875 -1 1 C-0.67 0.67 -0.34 0.34 0 0 Z " fill="#7D7F8C" transform="translate(40,3)"/>
<path d="M0 0 C0.99 0 1.98 0 3 0 C2.67 2.31 2.34 4.62 2 7 C2.99 7.66 3.98 8.32 5 9 C4.67 9.99 4.34 10.98 4 12 C4.45375 11.54625 4.9075 11.0925 5.375 10.625 C6.58333333 9.41666667 7.79166667 8.20833333 9 7 C9 9.31 9 11.62 9 14 C4.05 14 -0.9 14 -6 14 C-5.67 13.34 -5.34 12.68 -5 12 C-4.34 12 -3.68 12 -3 12 C-1.49069817 8.6136749 -1.49069817 8.6136749 -1 5 C-0.68197057 3.33034549 -0.35015049 1.66321482 0 0 Z " fill="#5F575A" transform="translate(41,36)"/>
<path d="M0 0 C-0.33 1.98 -0.66 3.96 -1 6 C-0.01 6 0.98 6 2 6 C3.75 8.3125 3.75 8.3125 5 11 C4.67 11.99 4.34 12.98 4 14 C2.35 14.33 0.7 14.66 -1 15 C-1 13.02 -1 11.04 -1 9 C-2.32 9.99 -3.64 10.98 -5 12 C-5.33 11.34 -5.66 10.68 -6 10 C-6.99 10.66 -7.98 11.32 -9 12 C-9.99 11.67 -10.98 11.34 -12 11 C-9.9316316 9.3009831 -8.44788522 8.10237376 -5.8125 7.5 C-5.214375 7.335 -4.61625 7.17 -4 7 C-3.67 6.01 -3.34 5.02 -3 4 C-3.99 4 -4.98 4 -6 4 C-6 3.01 -6 2.02 -6 1 C-4 0 -4 0 0 0 Z " fill="#9C524A" transform="translate(29,31)"/>
<path d="M0 0 C1.22589844 0.01353516 1.22589844 0.01353516 2.4765625 0.02734375 C3.41628906 0.04474609 3.41628906 0.04474609 4.375 0.0625 C4.375 2.7025 4.375 5.3425 4.375 8.0625 C1.96954362 9.26522819 0.42503047 9.16321472 -2.25 9.125 C-3.47589844 9.11146484 -3.47589844 9.11146484 -4.7265625 9.09765625 C-5.66628906 9.08025391 -5.66628906 9.08025391 -6.625 9.0625 C-5.625 6.0625 -5.625 6.0625 -2.625 4.0625 C-3.945 3.0725 -5.265 2.0825 -6.625 1.0625 C-4.21954362 -0.14022819 -2.67503047 -0.03821472 0 0 Z " fill="#D38465" transform="translate(14.625,11.9375)"/>
<path d="M0 0 C0 0.99 0 1.98 0 3 C-0.99 3.495 -0.99 3.495 -2 4 C-1.01 4.33 -0.02 4.66 1 5 C1 6.65 1 8.3 1 10 C0.01 10.495 0.01 10.495 -1 11 C-1 10.34 -1 9.68 -1 9 C-2.65 9 -4.3 9 -6 9 C-6.91058531 5.92677456 -7.08886184 3.19902639 -7 0 C-4.3333581 -1.33332095 -2.83319697 -0.67102033 0 0 Z " fill="#FACDAB" transform="translate(13,23)"/>
<path d="M0 0 C1.98 0.495 1.98 0.495 4 1 C4 1.66 4 2.32 4 3 C5.32 3 6.64 3 8 3 C8.125 8.75 8.125 8.75 7 11 C5.25 10.875 5.25 10.875 3 10 C0.6875 7.1875 0.6875 7.1875 -1 4 C-0.75 1.625 -0.75 1.625 0 0 Z " fill="#EFB29C" transform="translate(31,18)"/>
<path d="M0 0 C4.29 0 8.58 0 13 0 C13 2.31 13 4.62 13 7 C12.814375 6.38125 12.62875 5.7625 12.4375 5.125 C10.28562767 1.94397134 7.62466237 1.80548053 4 1 C3.34 3.97 2.68 6.94 2 10 C1.01 10 0.02 10 -1 10 C-0.67 6.7 -0.34 3.4 0 0 Z " fill="#7F6E75" transform="translate(37,0)"/>
<path d="M0 0 C2.12038635 2.61514317 4.13091744 5.19637616 6 8 C2.37 8 -1.26 8 -5 8 C-5 5.69 -5 3.38 -5 1 C-3.515 1.99 -3.515 1.99 -2 3 C-1.34 2.01 -0.68 1.02 0 0 Z " fill="#755846" transform="translate(5,42)"/>
<path d="M0 0 C0.99 0.33 1.98 0.66 3 1 C3 7.6 3 14.2 3 21 C2.34 21 1.68 21 1 21 C0.83011631 18.81274749 0.66424731 16.62518299 0.5 14.4375 C0.4071875 13.21933594 0.314375 12.00117188 0.21875 10.74609375 C0.00897272 7.15365784 -0.03704015 3.59752457 0 0 Z " fill="#424346" transform="translate(47,8)"/>
<path d="M0 0 C1.98 0 3.96 0 6 0 C5.17037671 10.02097603 5.17037671 10.02097603 3 14 C-0.22791555 16.1519437 -1.28400809 16.20086443 -5 16 C-5 15.34 -5 14.68 -5 14 C-3.02 13.34 -1.04 12.68 1 12 C1 11.01 1 10.02 1 9 C1.66 9 2.32 9 3 9 C3.33 6.36 3.66 3.72 4 1 C2.68 0.67 1.36 0.34 0 0 Z " fill="#C78E82" transform="translate(35,20)"/>
<path d="M0 0 C0.33 0.99 0.66 1.98 1 3 C1.99 2.67 2.98 2.34 4 2 C3.7452486 3.31571603 3.47065859 4.62760376 3.1875 5.9375 C3.03667969 6.66839844 2.88585937 7.39929688 2.73046875 8.15234375 C2.48941406 8.76207031 2.24835937 9.37179688 2 10 C1.01 10.33 0.02 10.66 -1 11 C-1.66 11.66 -2.32 12.32 -3 13 C-3.08121924 11.39667209 -3.13929134 9.79215974 -3.1875 8.1875 C-3.22230469 7.29417969 -3.25710937 6.40085937 -3.29296875 5.48046875 C-2.95081002 2.58352485 -2.24606427 1.77444972 0 0 Z " fill="#A46B5E" transform="translate(27,12)"/>
<path d="M0 0 C1.0725 0.103125 2.145 0.20625 3.25 0.3125 C3.25 1.6325 3.25 2.9525 3.25 4.3125 C0.61 4.3125 -2.03 4.3125 -4.75 4.3125 C-5.41 5.9625 -6.07 7.6125 -6.75 9.3125 C-7.5 7.625 -7.5 7.625 -7.75 5.3125 C-5.56193527 1.30104799 -4.62978633 0.38581553 0 0 Z " fill="#C88C77" transform="translate(36.75,11.6875)"/>
<path d="M0 0 C1.32 0.66 2.64 1.32 4 2 C4 3.65 4 5.3 4 7 C4.66 7 5.32 7 6 7 C6.33 8.98 6.66 10.96 7 13 C6.34 12.34 5.68 11.68 5 11 C5 10.01 5 9.02 5 8 C4.38125 8.20625 3.7625 8.4125 3.125 8.625 C2.42375 8.74875 1.7225 8.8725 1 9 C-1 7 -1 7 -1.1875 3.9375 C-1 1 -1 1 0 0 Z " fill="#666872" transform="translate(40,3)"/>
<path d="M0 0 C1.65 0.33 3.3 0.66 5 1 C4.67 2.32 4.34 3.64 4 5 C4.99 5 5.98 5 7 5 C6.67 6.32 6.34 7.64 6 9 C4.68 8.67 3.36 8.34 2 8 C2.33 7.01 2.66 6.02 3 5 C1.35 5 -0.3 5 -2 5 C-2 4.01 -2 3.02 -2 2 C-1.34 2 -0.68 2 0 2 C0 1.34 0 0.68 0 0 Z " fill="#EE9E86" transform="translate(19,30)"/>
<path d="M0 0 C0.99 0 1.98 0 3 0 C3 0.99 3 1.98 3 3 C3.66 3 4.32 3 5 3 C5 4.65 5 6.3 5 8 C4.34 8 3.68 8 3 8 C3 9.98 3 11.96 3 14 C2.01 14.495 2.01 14.495 1 15 C0.67 10.05 0.34 5.1 0 0 Z " fill="#706E74" transform="translate(45,26)"/>
<path d="M0 0 C2.4375 0.75 2.4375 0.75 5 2 C5.875 4 5.875 4 6 6 C5.67 6.66 5.34 7.32 5 8 C2.625 8.1875 2.625 8.1875 0 8 C-0.66 7.01 -1.32 6.02 -2 5 C-1.34 5 -0.68 5 0 5 C0 3.35 0 1.7 0 0 Z " fill="#DA9272" transform="translate(11,42)"/>
<path d="M0 0 C2.475 0.495 2.475 0.495 5 1 C5 1.66 5 2.32 5 3 C7.31 3.33 9.62 3.66 12 4 C12 4.66 12 5.32 12 6 C8.04 6 4.08 6 0 6 C0 4.02 0 2.04 0 0 Z " fill="#F9AF8C" transform="translate(16,44)"/>
<path d="M0 0 C1.65 0.99 3.3 1.98 5 3 C4.67 5.31 4.34 7.62 4 10 C3.01 10 2.02 10 1 10 C-0.60725635 6.78548731 -0.05748185 3.56387464 0 0 Z " fill="#483B32" transform="translate(0,35)"/>
<path d="M0 0 C0.66 0 1.32 0 2 0 C2.57293869 9.73995772 2.57293869 9.73995772 -1 14 C-1.66 14 -2.32 14 -3 14 C-2.28547412 9.23649415 -1.20465156 4.65798604 0 0 Z " fill="#424142" transform="translate(48,34)"/>
<path d="M0 0 C5.94 1.485 5.94 1.485 12 3 C12.33 5.64 12.66 8.28 13 11 C12.01 11.33 11.02 11.66 10 12 C10 9.36 10 6.72 10 4 C8.3603125 4.061875 8.3603125 4.061875 6.6875 4.125 C3 4 3 4 0 2 C0 1.34 0 0.68 0 0 Z " fill="#886A67" transform="translate(32,16)"/>
<path d="M0 0 C0.33 0 0.66 0 1 0 C0.67 2.64 0.34 5.28 0 8 C1.65 7.67 3.3 7.34 5 7 C5.33 7.99 5.66 8.98 6 10 C1.375 12.125 1.375 12.125 -2 11 C-1.85892253 9.54119891 -1.71197585 8.08296449 -1.5625 6.625 C-1.48128906 5.81289062 -1.40007813 5.00078125 -1.31640625 4.1640625 C-1 2 -1 2 0 0 Z " fill="#E3A498" transform="translate(29,0)"/>
<path d="M0 0 C-0.33 1.98 -0.66 3.96 -1 6 C-0.01 6.33 0.98 6.66 2 7 C0.02 7.33 -1.96 7.66 -4 8 C-3.67 6.68 -3.34 5.36 -3 4 C-3.99 4 -4.98 4 -6 4 C-6 3.01 -6 2.02 -6 1 C-4 0 -4 0 0 0 Z " fill="#7D554E" transform="translate(29,31)"/>
<path d="M0 0 C0.33 0 0.66 0 1 0 C1 2.97 1 5.94 1 9 C0.34 9 -0.32 9 -1 9 C-1 11.97 -1 14.94 -1 18 C-1.33 18 -1.66 18 -2 18 C-2.05382106 15.37472811 -2.09358313 12.75055287 -2.125 10.125 C-2.14175781 9.37863281 -2.15851563 8.63226563 -2.17578125 7.86328125 C-2.1933959 5.90805539 -2.10320189 3.95257979 -2 2 C-1.34 1.34 -0.68 0.68 0 0 Z " fill="#794F41" transform="translate(2,4)"/>
<path d="M0 0 C1.485 0.99 1.485 0.99 3 2 C3.33 1.67 3.66 1.34 4 1 C6.4375 0.75 6.4375 0.75 9 1 C9.66 1.99 10.32 2.98 11 4 C8.66666667 4 6.33333333 4 4 4 C3.01 4.33 2.02 4.66 1 5 C1 6.98 1 8.96 1 11 C0.67 11 0.34 11 0 11 C0 7.37 0 3.74 0 0 Z " fill="#E7A78B" transform="translate(2,13)"/>
<path d="M0 0 C1.98272184 2.97408276 2.82813436 4.47675428 3 8 C1.0625 10.3125 1.0625 10.3125 -1 12 C-0.67 10.02 -0.34 8.04 0 6 C-0.99 6 -1.98 6 -3 6 C-3 4.68 -3 3.36 -3 2 C-2.01 2 -1.02 2 0 2 C0 1.34 0 0.68 0 0 Z " fill="#6F6466" transform="translate(39,34)"/>
<path d="M0 0 C0.66 0.33 1.32 0.66 2 1 C1.67 3.64 1.34 6.28 1 9 C0.34 9 -0.32 9 -1 9 C-1.33 9.66 -1.66 10.32 -2 11 C-2.33 8.03 -2.66 5.06 -3 2 C-2.01 1.34 -1.02 0.68 0 0 Z " fill="#E9AA8C" transform="translate(5,1)"/>
<path d="M0 0 C1.32 0 2.64 0 4 0 C4.1953125 6.0546875 4.1953125 6.0546875 4 8 C3.34 8.66 2.68 9.32 2 10 C0.39644899 6.49223216 -0.22036864 3.85645121 0 0 Z " fill="#A8817D" transform="translate(33,0)"/>
<path d="M0 0 C0.66 0 1.32 0 2 0 C2.33 1.65 2.66 3.3 3 5 C0 7 0 7 -2.1875 6.625 C-2.785625 6.41875 -3.38375 6.2125 -4 6 C-2.7260411 3.96166576 -1.38938077 1.96147874 0 0 Z " fill="#E57B6B" transform="translate(26,40)"/>
<path d="M0 0 C0.98120464 3.05263664 0.98120464 4.94736336 0 8 C-1.32 8 -2.64 8 -4 8 C-4.25 5.6875 -4.25 5.6875 -4 3 C-2 1.1875 -2 1.1875 0 0 Z " fill="#655458" transform="translate(44,28)"/>
<path d="M0 0 C2 1.375 2 1.375 4 3 C4 3.66 4 4.32 4 5 C1 7 1 7 -2 7 C-2.33 5.35 -2.66 3.7 -3 2 C-2.01 1.34 -1.02 0.68 0 0 Z " fill="#8E695F" transform="translate(34,43)"/>
<path d="M0 0 C2.97 0 5.94 0 9 0 C8.67 0.99 8.34 1.98 8 3 C5.03 3 2.06 3 -1 3 C-0.67 2.01 -0.34 1.02 0 0 Z " fill="#99583E" transform="translate(9,18)"/>
<path d="M0 0 C0 0.99 0 1.98 0 3 C-4.21878192 3.19622241 -7.17010894 2.80230168 -11 1 C-11 0.67 -11 0.34 -11 0 C-3.375 -1.125 -3.375 -1.125 0 0 Z " fill="#5F4748" transform="translate(44,16)"/>
<path d="M0 0 C0.1875 2.375 0.1875 2.375 0 5 C-0.99 5.66 -1.98 6.32 -3 7 C-3 6.34 -3 5.68 -3 5 C-4.65 4.67 -6.3 4.34 -8 4 C-7.67 3.34 -7.34 2.68 -7 2 C-5.0625 1.4375 -5.0625 1.4375 -3 1 C-1 0 -1 0 0 0 Z " fill="#EE907A" transform="translate(24,40)"/>
<path d="M0 0 C1.64284201 2.95711562 2.6442194 5.62008426 3 9 C2.34 9.66 1.68 10.32 1 11 C0.67 9.68 0.34 8.36 0 7 C-0.66 7 -1.32 7 -2 7 C-1.34 4.69 -0.68 2.38 0 0 Z " fill="#FBC49F" transform="translate(4,19)"/>
<path d="M0 0 C0.66 1.32 1.32 2.64 2 4 C-1.22791555 6.1519437 -2.28400809 6.20086443 -6 6 C-6 5.34 -6 4.68 -6 4 C-4.02 3.34 -2.04 2.68 0 2 C0 1.34 0 0.68 0 0 Z " fill="#AC847E" transform="translate(36,30)"/>
<path d="M0 0 C0.66 0.33 1.32 0.66 2 1 C1.34 2.98 0.68 4.96 0 7 C0.66 7.33 1.32 7.66 2 8 C0.02 8.99 0.02 8.99 -2 10 C-2.6875 8.375 -2.6875 8.375 -3 6 C-1.5625 2.75 -1.5625 2.75 0 0 Z " fill="#FBC4A0" transform="translate(6,6)"/>
<path d="M0 0 C0.33 0 0.66 0 1 0 C1 2.31 1 4.62 1 7 C-1.64 7 -4.28 7 -7 7 C-6.01 6.34 -5.02 5.68 -4 5 C-2.22165019 3.35844633 -1.08682115 2.17364229 0 0 Z " fill="#ECEBEC" transform="translate(49,43)"/>
<path d="M0 0 C2.31 0 4.62 0 7 0 C7 2.31 7 4.62 7 7 C6.6596875 6.071875 6.6596875 6.071875 6.3125 5.125 C4.62070165 2.38589791 3.00755839 1.94975528 0 1 C0 0.67 0 0.34 0 0 Z " fill="#EBECEB" transform="translate(43,0)"/>
<path d="M0 0 C2.33333333 2.33333333 4.66666667 4.66666667 7 7 C4.69 7 2.38 7 0 7 C0 4.69 0 2.38 0 0 Z " fill="#F3F0EC" transform="translate(0,43)"/>
<path d="M0 0 C0.33 0 0.66 0 1 0 C1 3.3 1 6.6 1 10 C-0.98 10.99 -0.98 10.99 -3 12 C-2.01 8.04 -1.02 4.08 0 0 Z " fill="#A97973" transform="translate(41,20)"/>
<path d="M0 0 C0.99 0 1.98 0 3 0 C2.67 2.31 2.34 4.62 2 7 C1.34 6.67 0.68 6.34 0 6 C-0.6875 3.5 -0.6875 3.5 -1 1 C-0.67 0.67 -0.34 0.34 0 0 Z " fill="#5D5D65" transform="translate(41,36)"/>
<path d="M0 0 C1.32 0.33 2.64 0.66 4 1 C4 1.99 4 2.98 4 4 C2.02 4.66 0.04 5.32 -2 6 C-1.34 4.02 -0.68 2.04 0 0 Z " fill="#937170" transform="translate(32,28)"/>
<path d="M0 0 C2.31 0 4.62 0 7 0 C2.25 4.875 2.25 4.875 0 6 C0 4.02 0 2.04 0 0 Z " fill="#F8F2E8" transform="translate(0,0)"/>
<path d="M0 0 C2.35448165 2.55068845 2.98327924 3.71017358 3.1875 7.25 C3.125625 8.1575 3.06375 9.065 3 10 C2.34 10 1.68 10 1 10 C-0.60725635 6.78548731 -0.05748185 3.56387464 0 0 Z " fill="#BA8583" transform="translate(23,20)"/>
<path d="M0 0 C0.99 0.33 1.98 0.66 3 1 C3.6875 3.0625 3.6875 3.0625 4 5 C3.34 5 2.68 5 2 5 C2 5.66 2 6.32 2 7 C1.34 7 0.68 7 0 7 C0 4.69 0 2.38 0 0 Z " fill="#9C858C" transform="translate(26,23)"/>
<path d="M0 0 C2.475 0.495 2.475 0.495 5 1 C4.67 1.99 4.34 2.98 4 4 C3.34 4 2.68 4 2 4 C2 5.65 2 7.3 2 9 C1.67 9 1.34 9 1 9 C0.67 6.03 0.34 3.06 0 0 Z " fill="#F0AE94" transform="translate(22,11)"/>
<path d="M0 0 C0.99 0 1.98 0 3 0 C3.33 0.99 3.66 1.98 4 3 C3.67 3.66 3.34 4.32 3 5 C1.35 5 -0.3 5 -2 5 C-1.34 4.67 -0.68 4.34 0 4 C0 2.68 0 1.36 0 0 Z " fill="#D98763" transform="translate(13,45)"/>
<path d="M0 0 C1.9375 0.5625 1.9375 0.5625 4 2 C4.75 5.625 4.75 5.625 5 9 C4.34 8.34 3.68 7.68 3 7 C3 6.01 3 5.02 3 4 C2.34 4 1.68 4 1 4 C0.67 2.68 0.34 1.36 0 0 Z " fill="#504F55" transform="translate(43,6)"/>
<path d="M0 0 C1.65 0 3.3 0 5 0 C4.67 0.99 4.34 1.98 4 3 C2.35 3.33 0.7 3.66 -1 4 C-0.67 2.68 -0.34 1.36 0 0 Z " fill="#7D4D3F" transform="translate(29,42)"/>
<path d="M0 0 C0.66 0 1.32 0 2 0 C2.99 1.98 3.98 3.96 5 6 C4.01 6.495 4.01 6.495 3 7 C1.5 5.75 1.5 5.75 0 4 C0 2.68 0 1.36 0 0 Z " fill="#F4AE8E" transform="translate(2,26)"/>
<path d="M0 0 C1.98 0.99 1.98 0.99 4 2 C4 3.32 4 4.64 4 6 C3.34 6 2.68 6 2 6 C2 5.34 2 4.68 2 4 C1.34 4 0.68 4 0 4 C0 2.68 0 1.36 0 0 Z " fill="#764A44" transform="translate(25,16)"/>
<path d="M0 0 C2.31 0.33 4.62 0.66 7 1 C7.33 2.98 7.66 4.96 8 7 C7.34 6.34 6.68 5.68 6 5 C6 4.01 6 3.02 6 2 C4.68 2.33 3.36 2.66 2 3 C1.34 2.01 0.68 1.02 0 0 Z " fill="#6B6E78" transform="translate(39,9)"/>
</svg>
