<?xml version="1.0" encoding="UTF-8"?>
<svg version="1.1" xmlns="http://www.w3.org/2000/svg" width="96" height="96">
<path d="M0 0 C31.68 0 63.36 0 96 0 C96 31.68 96 63.36 96 96 C64.32 96 32.64 96 0 96 C0 64.32 0 32.64 0 0 Z " fill="#FBFCFC" transform="translate(0,0)"/>
<path d="M0 0 C0.76828125 -0.01546875 1.5365625 -0.0309375 2.328125 -0.046875 C7.99167234 -0.00834747 11.4421291 1.08159683 16 4.5 C19.39212473 9.2794968 19.48911178 13.7836638 19.4375 19.4375 C19.4674707 20.59668945 19.4674707 20.59668945 19.49804688 21.77929688 C19.49322675 27.48150176 18.4507511 30.91239579 15 35.5 C10.2205032 38.89212473 5.7163362 38.98911178 0.0625 38.9375 C-0.71029297 38.95748047 -1.48308594 38.97746094 -2.27929688 38.99804688 C-7.98150176 38.99322675 -11.41239579 37.9507511 -16 34.5 C-19.42119424 29.69636401 -19.45938052 25.18162193 -19.375 19.5 C-19.38660156 18.71882813 -19.39820313 17.93765625 -19.41015625 17.1328125 C-19.38538998 12.22909113 -18.92863176 8.61203806 -16 4.5 C-10.70107481 0.52580611 -6.51368654 -0.13114805 0 0 Z " fill="#202931" transform="translate(72,52.5)"/>
<path d="M0 0 C0.76828125 -0.01546875 1.5365625 -0.0309375 2.328125 -0.046875 C7.99167234 -0.00834747 11.4421291 1.08159683 16 4.5 C19.39212473 9.2794968 19.48911178 13.7836638 19.4375 19.4375 C19.4674707 20.59668945 19.4674707 20.59668945 19.49804688 21.77929688 C19.49322675 27.48150176 18.4507511 30.91239579 15 35.5 C10.2205032 38.89212473 5.7163362 38.98911178 0.0625 38.9375 C-0.71029297 38.95748047 -1.48308594 38.97746094 -2.27929688 38.99804688 C-7.98150176 38.99322675 -11.41239579 37.9507511 -16 34.5 C-19.42119424 29.69636401 -19.45938052 25.18162193 -19.375 19.5 C-19.38660156 18.71882813 -19.39820313 17.93765625 -19.41015625 17.1328125 C-19.38538998 12.22909113 -18.92863176 8.61203806 -16 4.5 C-10.70107481 0.52580611 -6.51368654 -0.13114805 0 0 Z " fill="#202931" transform="translate(24,52.5)"/>
<path d="M0 0 C0.76828125 -0.01546875 1.5365625 -0.0309375 2.328125 -0.046875 C7.99167234 -0.00834747 11.4421291 1.08159683 16 4.5 C19.39212473 9.2794968 19.48911178 13.7836638 19.4375 19.4375 C19.4674707 20.59668945 19.4674707 20.59668945 19.49804688 21.77929688 C19.49322675 27.48150176 18.4507511 30.91239579 15 35.5 C10.2205032 38.89212473 5.7163362 38.98911178 0.0625 38.9375 C-0.71029297 38.95748047 -1.48308594 38.97746094 -2.27929688 38.99804688 C-7.98150176 38.99322675 -11.41239579 37.9507511 -16 34.5 C-19.42119424 29.69636401 -19.45938052 25.18162193 -19.375 19.5 C-19.38660156 18.71882813 -19.39820313 17.93765625 -19.41015625 17.1328125 C-19.38538998 12.22909113 -18.92863176 8.61203806 -16 4.5 C-10.70107481 0.52580611 -6.51368654 -0.13114805 0 0 Z " fill="#202931" transform="translate(72,4.5)"/>
<path d="M0 0 C0.76828125 -0.01546875 1.5365625 -0.0309375 2.328125 -0.046875 C7.99167234 -0.00834747 11.4421291 1.08159683 16 4.5 C19.39212473 9.2794968 19.48911178 13.7836638 19.4375 19.4375 C19.4674707 20.59668945 19.4674707 20.59668945 19.49804688 21.77929688 C19.49322675 27.48150176 18.4507511 30.91239579 15 35.5 C10.2205032 38.89212473 5.7163362 38.98911178 0.0625 38.9375 C-0.71029297 38.95748047 -1.48308594 38.97746094 -2.27929688 38.99804688 C-7.98150176 38.99322675 -11.41239579 37.9507511 -16 34.5 C-19.42119424 29.69636401 -19.45938052 25.18162193 -19.375 19.5 C-19.38660156 18.71882813 -19.39820313 17.93765625 -19.41015625 17.1328125 C-19.38538998 12.22909113 -18.92863176 8.61203806 -16 4.5 C-10.70107481 0.52580611 -6.51368654 -0.13114805 0 0 Z " fill="#202931" transform="translate(24,4.5)"/>
<path d="M0 0 C1.04800781 -0.03577148 1.04800781 -0.03577148 2.1171875 -0.07226562 C5.85263626 -0.0616936 7.87163552 0.47427059 10.9609375 2.59765625 C13.50163012 6.29188173 13.74500718 9.22624039 13.625 13.5625 C13.65400391 14.61050781 13.65400391 14.61050781 13.68359375 15.6796875 C13.64865818 19.38285807 13.07665328 21.44923844 10.99609375 24.5234375 C7.01286856 27.23431566 4.14856549 27.30881499 -0.5625 27.1875 C-1.31724609 27.20683594 -2.07199219 27.22617188 -2.84960938 27.24609375 C-6.52131326 27.21374394 -8.60618181 26.87915946 -11.4921875 24.55859375 C-13.49231841 20.58424036 -13.62657338 17.39091084 -13.5625 13 C-13.58634766 12.24525391 -13.61019531 11.49050781 -13.63476562 10.71289062 C-13.6249825 7.01160853 -13.32883533 4.96518126 -10.96484375 2.0703125 C-7.2597478 0.18603446 -4.06760888 -0.06379091 0 0 Z " fill="#FAFBFC" transform="translate(72,58.4375)"/>
<path d="M0 0 C1.04800781 -0.03577148 1.04800781 -0.03577148 2.1171875 -0.07226562 C5.85263626 -0.0616936 7.87163552 0.47427059 10.9609375 2.59765625 C13.50163012 6.29188173 13.74500718 9.22624039 13.625 13.5625 C13.65400391 14.61050781 13.65400391 14.61050781 13.68359375 15.6796875 C13.64865818 19.38285807 13.07665328 21.44923844 10.99609375 24.5234375 C7.01286856 27.23431566 4.14856549 27.30881499 -0.5625 27.1875 C-1.31724609 27.20683594 -2.07199219 27.22617188 -2.84960938 27.24609375 C-6.52131326 27.21374394 -8.60618181 26.87915946 -11.4921875 24.55859375 C-13.49231841 20.58424036 -13.62657338 17.39091084 -13.5625 13 C-13.58634766 12.24525391 -13.61019531 11.49050781 -13.63476562 10.71289062 C-13.6249825 7.01160853 -13.32883533 4.96518126 -10.96484375 2.0703125 C-7.2597478 0.18603446 -4.06760888 -0.06379091 0 0 Z " fill="#FAFBFC" transform="translate(24,58.4375)"/>
<path d="M0 0 C1.04800781 -0.03577148 1.04800781 -0.03577148 2.1171875 -0.07226562 C5.85263626 -0.0616936 7.87163552 0.47427059 10.9609375 2.59765625 C13.50163012 6.29188173 13.74500718 9.22624039 13.625 13.5625 C13.65400391 14.61050781 13.65400391 14.61050781 13.68359375 15.6796875 C13.64865818 19.38285807 13.07665328 21.44923844 10.99609375 24.5234375 C7.01286856 27.23431566 4.14856549 27.30881499 -0.5625 27.1875 C-1.31724609 27.20683594 -2.07199219 27.22617187 -2.84960938 27.24609375 C-6.52131326 27.21374394 -8.60618181 26.87915946 -11.4921875 24.55859375 C-13.49231841 20.58424036 -13.62657338 17.39091084 -13.5625 13 C-13.58634766 12.24525391 -13.61019531 11.49050781 -13.63476562 10.71289062 C-13.6249825 7.01160853 -13.32883533 4.96518126 -10.96484375 2.0703125 C-7.2597478 0.18603446 -4.06760888 -0.06379091 0 0 Z " fill="#FAFBFC" transform="translate(72,10.4375)"/>
<path d="M0 0 C1.04800781 -0.03577148 1.04800781 -0.03577148 2.1171875 -0.07226562 C5.85263626 -0.0616936 7.87163552 0.47427059 10.9609375 2.59765625 C13.50163012 6.29188173 13.74500718 9.22624039 13.625 13.5625 C13.65400391 14.61050781 13.65400391 14.61050781 13.68359375 15.6796875 C13.64865818 19.38285807 13.07665328 21.44923844 10.99609375 24.5234375 C7.01286856 27.23431566 4.14856549 27.30881499 -0.5625 27.1875 C-1.31724609 27.20683594 -2.07199219 27.22617187 -2.84960938 27.24609375 C-6.52131326 27.21374394 -8.60618181 26.87915946 -11.4921875 24.55859375 C-13.49231841 20.58424036 -13.62657338 17.39091084 -13.5625 13 C-13.58634766 12.24525391 -13.61019531 11.49050781 -13.63476562 10.71289062 C-13.6249825 7.01160853 -13.32883533 4.96518126 -10.96484375 2.0703125 C-7.2597478 0.18603446 -4.06760888 -0.06379091 0 0 Z " fill="#FAFBFC" transform="translate(24,10.4375)"/>
<path d="M0 0 C0.515625 0.2475 1.03125 0.495 1.5625 0.75 C1.0675 1.183125 0.5725 1.61625 0.0625 2.0625 C-1.76968192 3.74740483 -1.76968192 3.74740483 -1.4375 6.75 C-3.4175 7.74 -3.4175 7.74 -5.4375 8.75 C-5.4375 8.09 -5.4375 7.43 -5.4375 6.75 C-6.0975 6.75 -6.7575 6.75 -7.4375 6.75 C-7.7675 8.07 -8.0975 9.39 -8.4375 10.75 C-9.4275 10.09 -10.4175 9.43 -11.4375 8.75 C-10.51142708 5.04570832 -9.24870807 3.32629659 -6.0625 1.375 C-2.4375 -0.25 -2.4375 -0.25 0 0 Z " fill="#2D343B" transform="translate(65.4375,53.25)"/>
<path d="M0 0 C0.515625 0.2475 1.03125 0.495 1.5625 0.75 C1.0675 1.183125 0.5725 1.61625 0.0625 2.0625 C-1.76968192 3.74740483 -1.76968192 3.74740483 -1.4375 6.75 C-3.4175 7.74 -3.4175 7.74 -5.4375 8.75 C-5.4375 8.09 -5.4375 7.43 -5.4375 6.75 C-6.0975 6.75 -6.7575 6.75 -7.4375 6.75 C-7.7675 8.07 -8.0975 9.39 -8.4375 10.75 C-9.4275 10.09 -10.4175 9.43 -11.4375 8.75 C-10.51142708 5.04570832 -9.24870807 3.32629659 -6.0625 1.375 C-2.4375 -0.25 -2.4375 -0.25 0 0 Z " fill="#2D343B" transform="translate(17.4375,53.25)"/>
<path d="M0 0 C0.515625 0.2475 1.03125 0.495 1.5625 0.75 C1.0675 1.183125 0.5725 1.61625 0.0625 2.0625 C-1.76968192 3.74740483 -1.76968192 3.74740483 -1.4375 6.75 C-3.4175 7.74 -3.4175 7.74 -5.4375 8.75 C-5.4375 8.09 -5.4375 7.43 -5.4375 6.75 C-6.0975 6.75 -6.7575 6.75 -7.4375 6.75 C-7.7675 8.07 -8.0975 9.39 -8.4375 10.75 C-9.4275 10.09 -10.4175 9.43 -11.4375 8.75 C-10.51142708 5.04570832 -9.24870807 3.32629659 -6.0625 1.375 C-2.4375 -0.25 -2.4375 -0.25 0 0 Z " fill="#2D343B" transform="translate(65.4375,5.25)"/>
<path d="M0 0 C0.515625 0.2475 1.03125 0.495 1.5625 0.75 C1.0675 1.183125 0.5725 1.61625 0.0625 2.0625 C-1.76968192 3.74740483 -1.76968192 3.74740483 -1.4375 6.75 C-3.4175 7.74 -3.4175 7.74 -5.4375 8.75 C-5.4375 8.09 -5.4375 7.43 -5.4375 6.75 C-6.0975 6.75 -6.7575 6.75 -7.4375 6.75 C-7.7675 8.07 -8.0975 9.39 -8.4375 10.75 C-9.4275 10.09 -10.4175 9.43 -11.4375 8.75 C-10.51142708 5.04570832 -9.24870807 3.32629659 -6.0625 1.375 C-2.4375 -0.25 -2.4375 -0.25 0 0 Z " fill="#2D343B" transform="translate(17.4375,5.25)"/>
<path d="M0 0 C0.66 2.31 1.32 4.62 2 7 C-1.75 10 -1.75 10 -4 10 C-4 9.34 -4 8.68 -4 8 C-4.66 7.67 -5.32 7.34 -6 7 C-6 4 -6 4 -4.125 1.8125 C-2 0 -2 0 0 0 Z " fill="#2A3239" transform="translate(86,80)"/>
<path d="M0 0 C0.66 2.31 1.32 4.62 2 7 C-1.75 10 -1.75 10 -4 10 C-4 9.34 -4 8.68 -4 8 C-4.66 7.67 -5.32 7.34 -6 7 C-6 4 -6 4 -4.125 1.8125 C-2 0 -2 0 0 0 Z " fill="#2A3239" transform="translate(38,80)"/>
<path d="M0 0 C0.66 2.31 1.32 4.62 2 7 C-1.75 10 -1.75 10 -4 10 C-4 9.34 -4 8.68 -4 8 C-4.66 7.67 -5.32 7.34 -6 7 C-6 4 -6 4 -4.125 1.8125 C-2 0 -2 0 0 0 Z " fill="#2A3239" transform="translate(86,32)"/>
<path d="M0 0 C0.66 2.31 1.32 4.62 2 7 C-1.75 10 -1.75 10 -4 10 C-4 9.34 -4 8.68 -4 8 C-4.66 7.67 -5.32 7.34 -6 7 C-6 4 -6 4 -4.125 1.8125 C-2 0 -2 0 0 0 Z " fill="#2A3239" transform="translate(38,32)"/>
<path d="M0 0 C0.66 0.33 1.32 0.66 2 1 C3.26229508 5.47540984 3.26229508 5.47540984 2 8 C-0.475 7.01 -0.475 7.01 -3 6 C-3 4.68 -3 3.36 -3 2 C-2.01 1.34 -1.02 0.68 0 0 Z " fill="#2B3339" transform="translate(60,82)"/>
<path d="M0 0 C0.66 0.33 1.32 0.66 2 1 C3.26229508 5.47540984 3.26229508 5.47540984 2 8 C-0.475 7.01 -0.475 7.01 -3 6 C-3 4.68 -3 3.36 -3 2 C-2.01 1.34 -1.02 0.68 0 0 Z " fill="#2B3339" transform="translate(12,82)"/>
<path d="M0 0 C0.66 0.33 1.32 0.66 2 1 C3.26229508 5.47540984 3.26229508 5.47540984 2 8 C-0.475 7.01 -0.475 7.01 -3 6 C-3 4.68 -3 3.36 -3 2 C-2.01 1.34 -1.02 0.68 0 0 Z " fill="#2B3339" transform="translate(60,34)"/>
<path d="M0 0 C0.66 0.33 1.32 0.66 2 1 C3.26229508 5.47540984 3.26229508 5.47540984 2 8 C-0.475 7.01 -0.475 7.01 -3 6 C-3 4.68 -3 3.36 -3 2 C-2.01 1.34 -1.02 0.68 0 0 Z " fill="#2B3339" transform="translate(12,34)"/>
<path d="M0 0 C2.0625 0.4375 2.0625 0.4375 4 1 C4.33 2.65 4.66 4.3 5 6 C4.34 6 3.68 6 3 6 C1.61767557 4.37373596 0.28062485 2.7074998 -1 1 C-0.67 0.67 -0.34 0.34 0 0 Z " fill="#2B333A" transform="translate(81,58)"/>
<path d="M0 0 C2.0625 0.4375 2.0625 0.4375 4 1 C4.33 2.65 4.66 4.3 5 6 C4.34 6 3.68 6 3 6 C1.61767557 4.37373596 0.28062485 2.7074998 -1 1 C-0.67 0.67 -0.34 0.34 0 0 Z " fill="#2B333A" transform="translate(33,58)"/>
<path d="M0 0 C2.0625 0.4375 2.0625 0.4375 4 1 C4.33 2.65 4.66 4.3 5 6 C4.34 6 3.68 6 3 6 C1.61767557 4.37373596 0.28062485 2.7074998 -1 1 C-0.67 0.67 -0.34 0.34 0 0 Z " fill="#2B333A" transform="translate(81,10)"/>
<path d="M0 0 C2.0625 0.4375 2.0625 0.4375 4 1 C4.33 2.65 4.66 4.3 5 6 C4.34 6 3.68 6 3 6 C1.61767557 4.37373596 0.28062485 2.7074998 -1 1 C-0.67 0.67 -0.34 0.34 0 0 Z " fill="#2B333A" transform="translate(33,10)"/>
</svg>
