<?xml version="1.0" encoding="UTF-8"?>
<svg version="1.1" xmlns="http://www.w3.org/2000/svg" width="76" height="76">
<path d="M0 0 C25.08 0 50.16 0 76 0 C76 25.08 76 50.16 76 76 C50.92 76 25.84 76 0 76 C0 50.92 0 25.84 0 0 Z " fill="#FEC71F" transform="translate(0,0)"/>
<path d="M0 0 C10.89 0 21.78 0 33 0 C33 25.08 33 50.16 33 76 C7.92 76 -17.16 76 -43 76 C-43 64.78 -43 53.56 -43 42 C-42.67 42 -42.34 42 -42 42 C-41.85304687 42.67804687 -41.70609375 43.35609375 -41.5546875 44.0546875 C-39.19989557 53.82572069 -35.61187342 61.98828291 -27.0859375 67.75390625 C-16.79968003 73.89869301 -6.83434976 75.84002768 5.11328125 73.3515625 C15.36012812 69.96010257 23.06015425 63.61053323 28 54 C32.21961224 44.42595556 32.55128557 33.28914244 29.09765625 23.41015625 C25.246213 14.95342854 20.08219278 9.47037036 12 5 C10.948125 4.401875 9.89625 3.80375 8.8125 3.1875 C5.85681611 1.93954458 3.17767418 1.37829455 0 1 C0 0.67 0 0.34 0 0 Z " fill="#FEFDFA" transform="translate(43,0)"/>
<path d="M0 0 C5.07610152 2.93975663 5.07610152 2.93975663 6.125 6.1796875 C6.27195312 7.08460937 6.27195312 7.08460937 6.421875 8.0078125 C4.171875 9.6328125 4.171875 9.6328125 1.421875 11.0078125 C-0.703125 10.3203125 -0.703125 10.3203125 -2.578125 9.0078125 C-6.30391589 6.52395191 -8.16523902 6.6273913 -12.578125 7.0078125 C-16.30615965 8.75510028 -16.30615965 8.75510028 -18.578125 12.0078125 C-18.69960805 13.62947002 -18.75356152 15.25665577 -18.765625 16.8828125 C-18.78689453 18.17832031 -18.78689453 18.17832031 -18.80859375 19.5 C-18.55811326 22.22556735 -18.12411253 23.75466979 -16.578125 26.0078125 C-13.63819809 28.02394072 -11.51063346 28.22835917 -8.015625 27.8203125 C-7.25121094 27.74425781 -6.48679687 27.66820313 -5.69921875 27.58984375 C-3.22260367 26.91025692 -2.21388939 25.94668979 -0.578125 24.0078125 C4.171875 25.8828125 4.171875 25.8828125 6.421875 27.0078125 C5.8286155 29.67748024 5.07381964 31.47362749 2.9296875 33.23046875 C-2.9106536 36.61108113 -8.97829904 37.05315406 -15.578125 36.0078125 C-20.6799681 33.86911987 -25.40437522 30.54064097 -27.765625 25.4453125 C-29.23954827 19.20948326 -29.80891077 13.44980971 -26.578125 7.6953125 C-20.18148012 -1.0645373 -10.34925625 -3.98289559 0 0 Z " fill="#FEFCF6" transform="translate(48.578125,19.9921875)"/>
<path d="M0 0 C10.89 0 21.78 0 33 0 C33 0.33 33 0.66 33 1 C31.0509375 1.3403125 31.0509375 1.3403125 29.0625 1.6875 C20.59730899 3.60113816 13.24983388 8.02952679 8 15 C6.27891728 18.05749949 4.73620999 21.1448398 3.26171875 24.328125 C2 27 2 27 0 30 C0 20.1 0 10.2 0 0 Z " fill="#FEFDF8" transform="translate(0,0)"/>
</svg>
