<?xml version="1.0" encoding="UTF-8"?>
<svg version="1.1" xmlns="http://www.w3.org/2000/svg" width="19" height="19">
<path d="M0 0 C6.27 0 12.54 0 19 0 C19 6.27 19 12.54 19 19 C12.73 19 6.46 19 0 19 C0 12.73 0 6.46 0 0 Z " fill="#F8CA3F" transform="translate(0,0)"/>
<path d="M0 0 C6.27 0 12.54 0 19 0 C19 1.98 19 3.96 19 6 C18.1028125 5.0409375 18.1028125 5.0409375 17.1875 4.0625 C15.09189663 1.79689611 15.09189663 1.79689611 12 1 C12.33 2.98 12.66 4.96 13 7 C11.35 7.33 9.7 7.66 8 8 C8 8.99 8 9.98 8 11 C9.65 11.33 11.3 11.66 13 12 C13 12.66 13 13.32 13 14 C10.125 14.125 10.125 14.125 7 14 C6.34 13.34 5.68 12.68 5 12 C5.03287583 9.27130593 5.56397771 6.7033382 6 4 C5.01 4.33 4.02 4.66 3 5 C2.67 5.99 2.34 6.98 2 8 C1.34 8 0.68 8 0 8 C0 5.36 0 2.72 0 0 Z " fill="#F9D868" transform="translate(0,0)"/>
<path d="M0 0 C2.5 1.125 2.5 1.125 5 3 C5.625 5.875 5.625 5.875 5 9 C2.5 11.875 2.5 11.875 0 14 C0 12.02 0 10.04 0 8 C-1.65 8 -3.3 8 -5 8 C-5 7.01 -5 6.02 -5 5 C-3.35 5 -1.7 5 0 5 C0 3.35 0 1.7 0 0 Z " fill="#FAC622" transform="translate(14,3)"/>
<path d="M0 0 C1.875 0.25 1.875 0.25 4 1 C5.25 3.0625 5.25 3.0625 6 5 C5.01 4.34 4.02 3.68 3 3 C2.67 4.32 2.34 5.64 2 7 C0.35 7 -1.3 7 -3 7 C-3 7.99 -3 8.98 -3 10 C-1.35 10 0.3 10 2 10 C1.67 10.66 1.34 11.32 1 12 C-0.98 11.34 -2.96 10.68 -5 10 C-4.67 8.68 -4.34 7.36 -4 6 C-2.35 6 -0.7 6 1 6 C1 5.34 1 4.68 1 4 C-0.65 4 -2.3 4 -4 4 C-2.68 3.67 -1.36 3.34 0 3 C0 2.01 0 1.02 0 0 Z " fill="#F2D05B" transform="translate(12,1)"/>
<path d="M0 0 C0.99 0 1.98 0 3 0 C2.67 3.63 2.34 7.26 2 11 C1.34 11 0.68 11 0 11 C0 10.01 0 9.02 0 8 C-0.99 8 -1.98 8 -3 8 C-3 6.68 -3 5.36 -3 4 C-2.34 4 -1.68 4 -1 4 C-0.67 2.68 -0.34 1.36 0 0 Z " fill="#F8C629" transform="translate(3,4)"/>
<path d="M0 0 C0.94875 0.04125 1.8975 0.0825 2.875 0.125 C2.875 0.785 2.875 1.445 2.875 2.125 C1.225 2.455 -0.425 2.785 -2.125 3.125 C-2.125 4.115 -2.125 5.105 -2.125 6.125 C-0.475 6.455 1.175 6.785 2.875 7.125 C2.875 7.785 2.875 8.445 2.875 9.125 C0 9.25 0 9.25 -3.125 9.125 C-5.125 7.125 -5.125 7.125 -5.375 4.625 C-4.98192433 0.69424327 -3.8631953 0.15452781 0 0 Z " fill="#FEF5AC" transform="translate(10.125,4.875)"/>
<path d="M0 0 C0.33 0 0.66 0 1 0 C1.3125 2.6875 1.3125 2.6875 1 6 C-1.5 8.875 -1.5 8.875 -4 11 C-4 9.02 -4 7.04 -4 5 C-4.99 4.67 -5.98 4.34 -7 4 C-4.69 4 -2.38 4 0 4 C0 2.68 0 1.36 0 0 Z " fill="#F6CB3E" transform="translate(18,6)"/>
<path d="M0 0 C0.33 0 0.66 0 1 0 C1 2.31 1 4.62 1 7 C-1.31 7 -3.62 7 -6 7 C-5.02433888 5.83040013 -4.044375 4.66438823 -3.0625 3.5 C-2.51722656 2.8503125 -1.97195312 2.200625 -1.41015625 1.53125 C-0.71212891 0.77328125 -0.71212891 0.77328125 0 0 Z " fill="#FEF9CF" transform="translate(18,12)"/>
<path d="M0 0 C0.61875 0.78375 1.2375 1.5675 1.875 2.375 C3.89858661 4.96837647 3.89858661 4.96837647 6 7 C4.02 7 2.04 7 0 7 C0 4.69 0 2.38 0 0 Z " fill="#FEF6D9" transform="translate(0,12)"/>
<path d="M0 0 C2.31 0 4.62 0 7 0 C7 1.98 7 3.96 7 6 C6.401875 5.38125 5.80375 4.7625 5.1875 4.125 C2.99188856 1.86323046 2.99188856 1.86323046 0 0 Z " fill="#FEFADC" transform="translate(12,0)"/>
</svg>
