<?xml version="1.0" encoding="UTF-8"?>
<svg version="1.1" xmlns="http://www.w3.org/2000/svg" width="24" height="24">
<path d="M0 0 C7.92 0 15.84 0 24 0 C24 7.92 24 15.84 24 24 C16.08 24 8.16 24 0 24 C0 16.08 0 8.16 0 0 Z " fill="#EDF0F1" transform="translate(0,0)"/>
<path d="M0 0 C7.92 0 15.84 0 24 0 C24 7.92 24 15.84 24 24 C16.08 24 8.16 24 0 24 C0 16.08 0 8.16 0 0 Z M2.125 6.1875 C0.60073468 9.9981633 0.74496749 13.16517844 2 17 C4.58214687 20.56943833 6.20547895 21.7688666 10.4375 23 C14.58956112 23 16.58093877 22.33117811 20 20 C22.1979747 17.28916453 22.92397877 15.51042828 23.4375 12.0625 C22.87672496 8.13707473 21.49711051 6.05202395 19 3 C13.00943135 -1.39308368 6.59328628 0.97449934 2.125 6.1875 Z " fill="#F7F8F9" transform="translate(0,0)"/>
<path d="M0 0 C3.63332579 2.9727211 4.52535989 4.52775915 5.125 9.125 C4.64187212 13.15106566 3.34708738 15.16157177 0.75 18.25 C-2.3274905 20.16303463 -4.10809708 20.25253398 -7.75 20.1875 C-12.06036857 19.03293699 -13.63833491 17.86024292 -16.25 14.25 C-17.21385871 11.51061208 -17.54433455 9.14240297 -17.25 6.25 C-15.64182692 3.03365384 -14.27289934 1.00012618 -11.375 -1.125 C-6.88356315 -2.44601084 -4.14855304 -2.23383625 0 0 Z M-15.25 5.25 C-16.05588729 8.10514354 -16.01159953 10.38823205 -15.25 13.25 C-13.35350449 16.39658666 -13.35350449 16.39658666 -10.25 18.25 C-6.24828457 18.82167363 -4.02235314 18.61938628 -0.375 16.875 C1.84664825 15.42239958 1.84664825 15.42239958 2.75 13.25 C3.35706074 7.35388111 3.35706074 7.35388111 0.6875 2.25 C-5.5560008 -2.00089416 -10.52871339 -0.27735993 -15.25 5.25 Z " fill="#535758" transform="translate(18.25,2.75)"/>
<path d="M0 0 C0.53625 0.268125 1.0725 0.53625 1.625 0.8125 C0.635 1.3075 0.635 1.3075 -0.375 1.8125 C-0.375 2.4725 -0.375 3.1325 -0.375 3.8125 C-1.365 4.3075 -1.365 4.3075 -2.375 4.8125 C-2.375 5.8025 -2.375 6.7925 -2.375 7.8125 C-1.715 8.1425 -1.055 8.4725 -0.375 8.8125 C-0.58125 9.39 -0.7875 9.9675 -1 10.5625 C-1.46161261 13.33217567 -0.80444945 14.45811267 0.625 16.8125 C-1.0625 17.625 -1.0625 17.625 -3.375 17.8125 C-6.17138676 15.84231842 -7.98307821 14.25535283 -8.90234375 10.87109375 C-9.14293289 7.7786431 -9.02364682 5.69891447 -7.16015625 3.15234375 C-4.83404985 1.0274781 -3.21334838 -0.2536854 0 0 Z " fill="#EFF3F4" transform="translate(11.375,3.1875)"/>
<path d="M0 0 C0.66 0 1.32 0 2 0 C2 0.66 2 1.32 2 2 C2.99 2.33 3.98 2.66 5 3 C4.67 3.66 4.34 4.32 4 5 C3.67 4.67 3.34 4.34 3 4 C2.67 4.99 2.34 5.98 2 7 C2.99 7.33 3.98 7.66 5 8 C5 9.32 5 10.64 5 12 C2.6875 12.625 2.6875 12.625 0 13 C-0.99 12.34 -1.98 11.68 -3 11 C-2.67 10.34 -2.34 9.68 -2 9 C-1.67 9.33 -1.34 9.66 -1 10 C-0.67 9.01 -0.34 8.02 0 7 C-0.99 6.67 -1.98 6.34 -3 6 C-2.67 4.68 -2.34 3.36 -2 2 C-1.34 2 -0.68 2 0 2 C0 1.34 0 0.68 0 0 Z " fill="#515659" transform="translate(11,5)"/>
<path d="M0 0 C-0.33 0.66 -0.66 1.32 -1 2 C-3.32671854 2.68939809 -5.66067594 3.35466922 -8 4 C-8.99 4.66 -9.98 5.32 -11 6 C-10.75 4.125 -10.75 4.125 -10 2 C-6.82026536 -0.35535899 -3.84875379 -0.17494335 0 0 Z " fill="#5E6062" transform="translate(15,1)"/>
<path d="M0 0 C3.07531556 0.33246655 4.61832506 0.63104756 6.875 2.8125 C8 5 8 5 7.6875 7.25 C7.460625 7.8275 7.23375 8.405 7 9 C6.5875 8.2575 6.175 7.515 5.75 6.75 C4.06254382 4.09828315 2.29127911 2.13325986 0 0 Z " fill="#4C4D4F" transform="translate(14,2)"/>
</svg>
