<?xml version="1.0" encoding="UTF-8"?>
<svg version="1.1" xmlns="http://www.w3.org/2000/svg" width="24" height="24">
<path d="M0 0 C7.92 0 15.84 0 24 0 C24 7.92 24 15.84 24 24 C16.08 24 8.16 24 0 24 C0 16.08 0 8.16 0 0 Z " fill="#434547" transform="translate(0,0)"/>
<path d="M0 0 C7.92 0 15.84 0 24 0 C24 7.92 24 15.84 24 24 C16.08 24 8.16 24 0 24 C0 16.08 0 8.16 0 0 Z M2.75 4.1875 C-0.11731004 8.79567686 0.62638054 13.71951162 1 19 C4.65592098 19.77957139 8.28280047 20.35172862 12 20.75 C13.010625 20.86859375 14.02125 20.9871875 15.0625 21.109375 C18.67451631 20.97488503 20.30923522 20.42609939 23 18 C23.60557942 14.80624623 23.60557942 14.80624623 23.3125 11.3125 C23.26738281 10.13300781 23.22226562 8.95351562 23.17578125 7.73828125 C23.11777344 6.83464844 23.05976563 5.93101562 23 5 C12.81490252 2.70248299 12.81490252 2.70248299 2.75 4.1875 Z " fill="#F6F7F8" transform="translate(0,0)"/>
<path d="M0 0 C5 1 5 1 6 2 C6.07244053 4.01964199 6.08377188 6.04167124 6.0625 8.0625 C6.05347656 9.16722656 6.04445313 10.27195312 6.03515625 11.41015625 C6.02355469 12.26480469 6.01195312 13.11945312 6 14 C4.02 13.34 2.04 12.68 0 12 C0 8.04 0 4.08 0 0 Z " fill="#EFF1F2" transform="translate(9,5)"/>
<path d="M0 0 C0 3.96 0 7.92 0 12 C-1.65 12.66 -3.3 13.32 -5 14 C-5.08082094 12.04233719 -5.13910778 10.08373272 -5.1875 8.125 C-5.22230469 7.03445312 -5.25710937 5.94390625 -5.29296875 4.8203125 C-5.19628906 3.88960937 -5.09960938 2.95890625 -5 2 C-2 0 -2 0 0 0 Z " fill="#ECEEEF" transform="translate(8,5)"/>
<path d="M0 0 C0.66 0 1.32 0 2 0 C2 3.96 2 7.92 2 12 C0.02 12.99 0.02 12.99 -2 14 C-2.05389087 12.04196493 -2.09274217 10.08351091 -2.125 8.125 C-2.14820312 7.03445312 -2.17140625 5.94390625 -2.1953125 4.8203125 C-2 2 -2 2 0 0 Z " fill="#F9FBFB" transform="translate(19,5)"/>
<path d="M0 0 C0.33 0 0.66 0 1 0 C1.33 3.63 1.66 7.26 2 11 C2.66 10.67 3.32 10.34 4 10 C4.46651207 7.87423218 4.46651207 7.87423218 4.625 5.4375 C4.69976563 4.61121094 4.77453125 3.78492188 4.8515625 2.93359375 C4.90054687 2.29550781 4.94953125 1.65742188 5 1 C5.66 1 6.32 1 7 1 C7 4.3 7 7.6 7 11 C5.02 11.99 3.04 12.98 1 14 C0 13 0 13 -0.09765625 10.05859375 C-0.08605469 8.86363281 -0.07445312 7.66867187 -0.0625 6.4375 C-0.05347656 5.23996094 -0.04445313 4.04242188 -0.03515625 2.80859375 C-0.02355469 1.88175781 -0.01195312 0.95492188 0 0 Z " fill="#686B6D" transform="translate(16,7)"/>
</svg>
