<svg width="139" height="42" viewBox="0 0 139 42" fill="none" xmlns="http://www.w3.org/2000/svg">
<path d="M57.5211 33V14.3115H62.6969V19.5915L61.9674 18.0631C62.5232 16.7431 63.4148 15.7473 64.6422 15.0757C65.8695 14.3809 67.3632 14.0336 69.1232 14.0336V19.0357C68.8917 19.0126 68.6832 19.001 68.498 19.001C68.3127 18.9778 68.1159 18.9662 67.9074 18.9662C66.4253 18.9662 65.2211 19.3947 64.2948 20.2515C63.3916 21.0852 62.94 22.3936 62.94 24.1768V33H57.5211Z" fill="black"/>
<path d="M23.9338 14.4746C26.2728 14.4746 28.1254 15.1693 29.4917 16.5588C30.8812 17.9252 31.576 19.9862 31.576 22.742V33.441H26.157V23.5757C26.157 22.0936 25.8444 20.9936 25.2191 20.2757C24.617 19.5346 23.7486 19.1641 22.6138 19.1641C21.3401 19.1641 20.3327 19.581 19.5917 20.4146C18.8506 21.2252 18.4801 22.441 18.4801 24.062V33.441H13.0611V23.5757C13.0611 20.6346 11.8801 19.1641 9.51795 19.1641C8.26742 19.1641 7.27162 19.581 6.53056 20.4146C5.78951 21.2252 5.41898 22.441 5.41898 24.062V33.441H0V14.7525L5.17582 16.9062C5.87056 16.1188 6.71583 15.5167 7.71162 15.0999C8.73058 14.683 9.84216 14.4746 11.0464 14.4746C12.3664 14.4746 13.559 14.7409 14.6243 15.2736C15.6896 15.783 16.5464 16.5357 17.1948 17.5315C17.959 16.5588 18.9201 15.8062 20.078 15.2736C21.2591 14.7409 22.5443 14.4746 23.9338 14.4746Z" fill="black"/>
<path d="M103.211 40.0169C101.451 40.0169 99.7491 39.7969 98.1048 39.3569C96.4838 38.94 95.129 38.3032 94.0406 37.4463L96.1943 33.5558C96.9817 34.2042 97.9775 34.7137 99.1817 35.0842C100.409 35.4779 101.613 35.6748 102.794 35.6748C104.716 35.6748 106.106 35.2463 106.963 34.3895C107.843 33.5326 108.283 32.2589 108.283 30.5684V27.7547L108.63 23.0652L108.561 18.341V14.3115H113.702V29.8737C113.702 33.3474 112.799 35.9063 110.992 37.5506C109.186 39.1948 106.592 40.0169 103.211 40.0169ZM102.378 32.0968C100.641 32.0968 99.0659 31.7263 97.6533 30.9853C96.2638 30.221 95.1406 29.1673 94.2838 27.8242C93.4501 26.4579 93.0332 24.8715 93.0332 23.0652C93.0332 21.2357 93.4501 19.6494 94.2838 18.3062C95.1406 16.9399 96.2638 15.8862 97.6533 15.1452C99.0659 14.4041 100.641 14.0336 102.378 14.0336C103.952 14.0336 105.342 14.3578 106.546 15.0062C107.75 15.6315 108.688 16.6157 109.36 17.9589C110.031 19.2789 110.367 20.981 110.367 23.0652C110.367 25.1263 110.031 26.8284 109.36 28.1716C108.688 29.4916 107.75 30.4758 106.546 31.1242C105.342 31.7726 103.952 32.0968 102.378 32.0968ZM103.454 27.6505C104.404 27.6505 105.249 27.4652 105.99 27.0947C106.731 26.701 107.31 26.1568 107.727 25.4621C108.144 24.7673 108.352 23.9684 108.352 23.0652C108.352 22.1389 108.144 21.3399 107.727 20.6684C107.31 19.9736 106.731 19.441 105.99 19.0704C105.249 18.6768 104.404 18.4799 103.454 18.4799C102.505 18.4799 101.66 18.6768 100.919 19.0704C100.177 19.441 99.587 19.9736 99.147 20.6684C98.7301 21.3399 98.5217 22.1389 98.5217 23.0652C98.5217 23.9684 98.7301 24.7673 99.147 25.4621C99.587 26.1568 100.177 26.701 100.919 27.0947C101.66 27.4652 102.505 27.6505 103.454 27.6505Z" fill="black"/>
<path d="M44.5136 33.2779C42.522 33.2779 40.7504 32.8611 39.1988 32.0274C37.6704 31.1937 36.4546 30.0589 35.5514 28.6231C34.6714 27.1642 34.2314 25.5084 34.2314 23.6557C34.2314 21.7799 34.6714 20.1241 35.5514 18.6883C36.4546 17.2294 37.6704 16.0946 39.1988 15.2841C40.7504 14.4504 42.522 14.0336 44.5136 14.0336C46.482 14.0336 48.242 14.4504 49.7936 15.2841C51.3452 16.0946 52.561 17.2178 53.441 18.6536C54.321 20.0894 54.761 21.7568 54.761 23.6557C54.761 25.5084 54.321 27.1642 53.441 28.6231C52.561 30.0589 51.3452 31.1937 49.7936 32.0274C48.242 32.8611 46.482 33.2779 44.5136 33.2779ZM44.5136 28.8316C45.4168 28.8316 46.2273 28.6231 46.9452 28.2063C47.6631 27.7894 48.2305 27.1989 48.6473 26.4347C49.0641 25.6473 49.2726 24.721 49.2726 23.6557C49.2726 22.5673 49.0641 21.641 48.6473 20.8768C48.2305 20.1126 47.6631 19.522 46.9452 19.1052C46.2273 18.6883 45.4168 18.4799 44.5136 18.4799C43.6104 18.4799 42.7999 18.6883 42.082 19.1052C41.3641 19.522 40.7852 20.1126 40.3452 20.8768C39.9283 21.641 39.7199 22.5673 39.7199 23.6557C39.7199 24.721 39.9283 25.6473 40.3452 26.4347C40.7852 27.1989 41.3641 27.7894 42.082 28.2063C42.7999 28.6231 43.6104 28.8316 44.5136 28.8316Z" fill="#0D98BA"/>
<path d="M78.5334 33.2779C76.7734 33.2779 75.1871 32.8842 73.7745 32.0968C72.3618 31.2863 71.2387 30.1631 70.405 28.7273C69.5944 27.2915 69.1892 25.601 69.1892 23.6557C69.1892 21.6873 69.5944 19.9852 70.405 18.5494C71.2387 17.1136 72.3618 16.002 73.7745 15.2146C75.1871 14.4273 76.7734 14.0336 78.5334 14.0336C80.1082 14.0336 81.4861 14.3809 82.6672 15.0757C83.8482 15.7704 84.763 16.8241 85.4114 18.2368C86.0598 19.6494 86.384 21.4557 86.384 23.6557C86.384 25.8326 86.0714 27.6389 85.4461 29.0747C84.8208 30.4874 83.9177 31.541 82.7366 32.2358C81.5787 32.9305 80.1777 33.2779 78.5334 33.2779ZM79.4713 28.8316C80.3513 28.8316 81.1503 28.6231 81.8682 28.2063C82.5861 27.7894 83.1535 27.1989 83.5703 26.4347C84.0103 25.6473 84.2303 24.721 84.2303 23.6557C84.2303 22.5673 84.0103 21.641 83.5703 20.8768C83.1535 20.1126 82.5861 19.522 81.8682 19.1052C81.1503 18.6883 80.3513 18.4799 79.4713 18.4799C78.5682 18.4799 77.7577 18.6883 77.0398 19.1052C76.3219 19.522 75.7429 20.1126 75.3029 20.8768C74.8861 21.641 74.6776 22.5673 74.6776 23.6557C74.6776 24.721 74.8861 25.6473 75.3029 26.4347C75.7429 27.1989 76.3219 27.7894 77.0398 28.2063C77.7577 28.6231 78.5682 28.8316 79.4713 28.8316ZM84.3693 33V29.1789L84.4735 23.621L84.1261 18.0978V14.3115H89.5451V33H84.3693Z" fill="#CB0031"/>
<path d="M127.303 33.2779C125.311 33.2779 123.539 32.8611 121.988 32.0274C120.459 31.1937 119.244 30.0589 118.341 28.6231C117.46 27.1642 117.02 25.5084 117.02 23.6557C117.02 21.7799 117.46 20.1241 118.341 18.6883C119.244 17.2294 120.459 16.0946 121.988 15.2841C123.539 14.4504 125.311 14.0336 127.303 14.0336C129.271 14.0336 131.031 14.4504 132.583 15.2841C134.134 16.0946 135.35 17.2178 136.23 18.6536C137.11 20.0894 137.55 21.7568 137.55 23.6557C137.55 25.5084 137.11 27.1642 136.23 28.6231C135.35 30.0589 134.134 31.1937 132.583 32.0274C131.031 32.8611 129.271 33.2779 127.303 33.2779ZM127.303 28.8316C128.206 28.8316 129.016 28.6231 129.734 28.2063C130.452 27.7894 131.02 27.1989 131.436 26.4347C131.853 25.6473 132.062 24.721 132.062 23.6557C132.062 22.5673 131.853 21.641 131.436 20.8768C131.02 20.1126 130.452 19.522 129.734 19.1052C129.016 18.6883 128.206 18.4799 127.303 18.4799C126.399 18.4799 125.589 18.6883 124.871 19.1052C124.153 19.522 123.574 20.1126 123.134 20.8768C122.717 21.641 122.509 22.5673 122.509 23.6557C122.509 24.721 122.717 25.6473 123.134 26.4347C123.574 27.1989 124.153 27.7894 124.871 28.2063C125.589 28.6231 126.399 28.8316 127.303 28.8316Z" fill="#EB9412"/>
</svg>
