<svg width="24" height="24" viewBox="0 0 24 24" fill="none" xmlns="http://www.w3.org/2000/svg">
<path d="M22.0004 16.4201V19.4201C22.0016 19.6986 21.9445 19.9743 21.8329 20.2294C21.7214 20.4846 21.5577 20.7137 21.3525 20.902C21.1473 21.0902 20.905 21.2336 20.6412 21.3228C20.3773 21.412 20.0978 21.4452 19.8204 21.4201C16.7433 21.0857 13.7874 20.0342 11.1904 18.3501C8.77425 16.8148 6.72576 14.7663 5.19042 12.3501C3.5004 9.7413 2.44866 6.77109 2.12042 3.6801C2.09543 3.40356 2.1283 3.12486 2.21692 2.86172C2.30555 2.59859 2.44799 2.35679 2.63519 2.15172C2.82238 1.94665 3.05023 1.78281 3.30421 1.67062C3.5582 1.55843 3.83276 1.50036 4.11042 1.5001H7.11042C7.59573 1.49532 8.06621 1.66718 8.43418 1.98363C8.80215 2.30008 9.0425 2.73954 9.11042 3.2201C9.23704 4.18016 9.47187 5.12282 9.81042 6.0301C9.94497 6.38802 9.97408 6.77701 9.89433 7.15098C9.81457 7.52494 9.62928 7.86821 9.36042 8.1401L8.09042 9.4101C9.51398 11.9136 11.5869 13.9865 14.0904 15.4101L15.3604 14.1401C15.6323 13.8712 15.9756 13.6859 16.3495 13.6062C16.7235 13.5264 17.1125 13.5556 17.4704 13.6901C18.3777 14.0286 19.3204 14.2635 20.2804 14.3901C20.7662 14.4586 21.2098 14.7033 21.527 15.0776C21.8441 15.4519 22.0126 15.9297 22.0004 16.4201Z" stroke="#A7A9B7" stroke-width="1.5" stroke-linecap="round" stroke-linejoin="round"/>
</svg>
