<svg width="24" height="24" viewBox="0 0 24 24" fill="none" xmlns="http://www.w3.org/2000/svg">
<path d="M12.1605 10.37C12.0605 10.36 11.9405 10.36 11.8305 10.37C9.45055 10.29 7.56055 8.34 7.56055 5.94C7.56055 3.49 9.54055 1.5 12.0005 1.5C14.4505 1.5 16.4405 3.49 16.4405 5.94C16.4305 8.34 14.5405 10.29 12.1605 10.37Z" stroke="#A7A9B7" stroke-width="1.5" stroke-linecap="round" stroke-linejoin="round"/>
<path d="M7.1607 14.06C4.7407 15.68 4.7407 18.32 7.1607 19.93C9.9107 21.77 14.4207 21.77 17.1707 19.93C19.5907 18.31 19.5907 15.67 17.1707 14.06C14.4307 12.23 9.9207 12.23 7.1607 14.06Z" stroke="#A7A9B7" stroke-width="1.5" stroke-linecap="round" stroke-linejoin="round"/>
</svg>
