<svg width="32" height="32" viewBox="0 0 32 32" fill="none" xmlns="http://www.w3.org/2000/svg">
<path d="M16 22C19.3137 22 22 19.3137 22 16C22 12.6863 19.3137 10 16 10C12.6863 10 10 12.6863 10 16C10 19.3137 12.6863 22 16 22Z" stroke="#101828" stroke-width="2" stroke-linecap="round" stroke-linejoin="round"/>
<path d="M24.6745 10.0883C24.9755 10.5191 25.2389 10.975 25.462 11.4508L28.6995 13.2508C29.1038 15.0614 29.1081 16.9384 28.712 18.7508L25.462 20.5508C25.2389 21.0266 24.9755 21.4824 24.6745 21.9133L24.737 25.6258C23.365 26.8761 21.7411 27.818 19.9745 28.3883L16.787 26.4758C16.2627 26.5133 15.7364 26.5133 15.212 26.4758L12.037 28.3758C10.2649 27.8159 8.63567 26.8776 7.26205 25.6258L7.32455 21.9258C7.02614 21.489 6.76281 21.0292 6.53705 20.5508L3.29955 18.7508C2.8953 16.9402 2.89103 15.0632 3.28705 13.2508L6.53705 11.4508C6.76015 10.975 7.02361 10.5191 7.32455 10.0883L7.26205 6.37578C8.63411 5.12549 10.258 4.18353 12.0245 3.61328L15.212 5.52578C15.7364 5.48828 16.2627 5.48828 16.787 5.52578L19.962 3.62578C21.7342 4.18565 23.3634 5.12397 24.737 6.37578L24.6745 10.0883Z" stroke="#101828" stroke-width="2" stroke-linecap="round" stroke-linejoin="round"/>
</svg>
