<svg width="40" height="40" viewBox="0 0 40 40" fill="none" xmlns="http://www.w3.org/2000/svg">
<rect width="40" height="40" rx="20" fill="#EFEFEF"/>
<path d="M20 23C22.0711 23 23.75 21.3211 23.75 19.25C23.75 17.1789 22.0711 15.5 20 15.5C17.9289 15.5 16.25 17.1789 16.25 19.25C16.25 21.3211 17.9289 23 20 23Z" stroke="#414141" stroke-width="1.5" stroke-miterlimit="10"/>
<path d="M13.9814 26.6943C14.5457 25.5828 15.4068 24.6493 16.4691 23.9972C17.5315 23.3452 18.7537 23 20.0002 23C21.2467 23 22.4689 23.3452 23.5312 23.9972C24.5936 24.6493 25.4547 25.5828 26.0189 26.6943" stroke="#414141" stroke-width="1.5" stroke-linecap="round" stroke-linejoin="round"/>
<path d="M24.5 13.25H29" stroke="#414141" stroke-width="1.5" stroke-linecap="round" stroke-linejoin="round"/>
<path d="M26.75 11V15.5" stroke="#414141" stroke-width="1.5" stroke-linecap="round" stroke-linejoin="round"/>
<path d="M28.8875 18.5844C28.9633 19.0524 29.0009 19.5259 29 20C29 21.78 28.4722 23.5201 27.4832 25.0002C26.4943 26.4802 25.0887 27.6337 23.4442 28.3149C21.7996 28.9961 19.99 29.1744 18.2442 28.8271C16.4984 28.4798 14.8947 27.6227 13.636 26.364C12.3774 25.1053 11.5202 23.5017 11.1729 21.7558C10.8257 20.01 11.0039 18.2004 11.6851 16.5559C12.3663 14.9113 13.5198 13.5057 14.9999 12.5168C16.4799 11.5279 18.22 11 20 11C20.4741 10.9991 20.9476 11.0367 21.4156 11.1125" stroke="#414141" stroke-width="1.5" stroke-linecap="round" stroke-linejoin="round"/>
</svg>
