<?xml version="1.0" encoding="UTF-8"?>
<svg version="1.1" xmlns="http://www.w3.org/2000/svg" width="24" height="24">
<path d="M0 0 C7.92 0 15.84 0 24 0 C24 7.92 24 15.84 24 24 C16.08 24 8.16 24 0 24 C0 16.08 0 8.16 0 0 Z " fill="#CACBCC" transform="translate(0,0)"/>
<path d="M0 0 C5.28 0 10.56 0 16 0 C16 7.92 16 15.84 16 24 C8.08 24 0.16 24 -8 24 C-8 21.36 -8 18.72 -8 16 C-7.67 16.66 -7.34 17.32 -7 18 C-5.02 18 -3.04 18 -1 18 C-1 18.66 -1 19.32 -1 20 C3.95 20 8.9 20 14 20 C14 14.72 14 9.44 14 4 C6.575 3.01 6.575 3.01 -1 2 C-0.67 1.34 -0.34 0.68 0 0 Z " fill="#FAFBFC" transform="translate(8,0)"/>
<path d="M0 0 C0.33 0.66 0.66 1.32 1 2 C2.98 2 4.96 2 7 2 C7 2.99 7 3.98 7 5 C10.63 5.33 14.26 5.66 18 6 C17.67 6.66 17.34 7.32 17 8 C11.39 8 5.78 8 0 8 C0 5.36 0 2.72 0 0 Z " fill="#FBFCFD" transform="translate(0,16)"/>
<path d="M0 0 C0.66 0 1.32 0 2 0 C2 1.98 2 3.96 2 6 C-0.31 6 -2.62 6 -5 6 C-5 5.67 -5 5.34 -5 5 C-8.3 4.67 -11.6 4.34 -15 4 C-15 3.67 -15 3.34 -15 3 C-10.05 2.67 -5.1 2.34 0 2 C0 1.34 0 0.68 0 0 Z " fill="#E7E9EA" transform="translate(22,18)"/>
<path d="M0 0 C2.64 0 5.28 0 8 0 C8 0.33 8 0.66 8 1 C11.3 1.33 14.6 1.66 18 2 C18 2.33 18 2.66 18 3 C15.72926348 3.16798051 13.45840707 3.33434113 11.1875 3.5 C9.29064453 3.63921875 9.29064453 3.63921875 7.35546875 3.78125 C5.24021483 3.91914781 3.11974408 4 1 4 C0.67 2.68 0.34 1.36 0 0 Z " fill="#E4E5E6" transform="translate(0,0)"/>
<path d="M0 0 C1.2065625 0.0309375 1.2065625 0.0309375 2.4375 0.0625 C2.1075 0.7225 1.7775 1.3825 1.4375 2.0625 C2.7575 2.7225 4.0775 3.3825 5.4375 4.0625 C5.4375 4.3925 5.4375 4.7225 5.4375 5.0625 C2.7975 5.0625 0.1575 5.0625 -2.5625 5.0625 C-3.125 3.125 -3.125 3.125 -3.5625 1.0625 C-2.5625 0.0625 -2.5625 0.0625 0 0 Z " fill="#929396" transform="translate(3.5625,11.9375)"/>
<path d="M0 0 C0.556875 0.350625 1.11375 0.70125 1.6875 1.0625 C5.44318137 2.58507353 8.2832512 1.23891627 12 0 C12 0.66 12 1.32 12 2 C10.3125 3.6875 10.3125 3.6875 8 5 C4.49389321 4.7434556 2.9721099 3.9814066 0 2 C0 1.34 0 0.68 0 0 Z " fill="#5C5D5F" transform="translate(6,8)"/>
</svg>
