<?xml version="1.0" encoding="UTF-8"?>
<svg version="1.1" xmlns="http://www.w3.org/2000/svg" width="24" height="24">
<path d="M0 0 C7.92 0 15.84 0 24 0 C24 7.92 24 15.84 24 24 C16.08 24 8.16 24 0 24 C0 16.08 0 8.16 0 0 Z " fill="#EDEEEF" transform="translate(0,0)"/>
<path d="M0 0 C7.92 0 15.84 0 24 0 C24 7.92 24 15.84 24 24 C16.08 24 8.16 24 0 24 C0 16.08 0 8.16 0 0 Z M2.05078125 4.67578125 C0.78869474 7.46738524 0.60002529 9.50309758 0.625 12.5625 C0.61726562 13.51253906 0.60953125 14.46257813 0.6015625 15.44140625 C0.83672192 17.97232651 0.83672192 17.97232651 2.0546875 19.8125 C5.05692801 21.645193 8.08945698 21.4732295 11.5 21.4375 C12.51513672 21.4674707 12.51513672 21.4674707 13.55078125 21.49804688 C16.7674558 21.49487461 18.53328624 21.44104926 20.91796875 19.1875 C22.91043378 15.15941185 23.43696827 11.51258246 22.1875 7.1875 C21.06843274 4.87904052 21.06843274 4.87904052 19 3 C16.46883514 2.74776341 14.09423357 2.62976337 11.5625 2.625 C10.88123047 2.60050781 10.19996094 2.57601563 9.49804688 2.55078125 C6.34986541 2.53228067 4.48211229 2.5855187 2.05078125 4.67578125 Z " fill="#F9FBFB" transform="translate(0,0)"/>
<path d="M0 0 C0.67675781 -0.00708984 1.35351562 -0.01417969 2.05078125 -0.02148438 C4.91912514 0.01528926 6.99995597 0.10073566 9.4140625 1.7265625 C11.31315916 4.71866442 11.63071543 7.97354102 11.5 11.4375 C9.5 16.4375 9.5 16.4375 7.5 18.4375 C5.02642763 18.59099136 2.59995481 18.66909885 0.125 18.6875 C-0.90367188 18.7184375 -0.90367188 18.7184375 -1.953125 18.75 C-4.81028945 18.77223474 -6.96969519 18.75674349 -9.453125 17.26171875 C-10.89144629 14.75539023 -10.89843386 12.87845862 -10.875 10 C-10.88273438 9.05253906 -10.89046875 8.10507813 -10.8984375 7.12890625 C-9.88818075 0.30472097 -6.22219544 -0.18370291 0 0 Z M-8.5 3.4375 C-8.81991706 6.26620249 -8.81991706 6.26620249 -8.75 9.4375 C-8.75515625 10.51 -8.7603125 11.5825 -8.765625 12.6875 C-8.78027649 15.58112178 -8.78027649 15.58112178 -6.5 17.4375 C-3.70522238 17.75763184 -3.70522238 17.75763184 -0.5625 17.6875 C1.02884766 17.69523437 1.02884766 17.69523437 2.65234375 17.703125 C5.70171473 17.64609765 5.70171473 17.64609765 8.5 15.4375 C8.5 14.4475 8.5 13.4575 8.5 12.4375 C7.51 12.1075 6.52 11.7775 5.5 11.4375 C5.5 9.7875 5.5 8.1375 5.5 6.4375 C6.49 6.4375 7.48 6.4375 8.5 6.4375 C8.00243908 3.68108584 8.00243908 3.68108584 6.5 1.4375 C4.35692104 1.31212259 2.20921114 1.26175636 0.0625 1.25 C-1.11183594 1.23582031 -2.28617188 1.22164063 -3.49609375 1.20703125 C-6.61496902 1.11850744 -6.61496902 1.11850744 -8.5 3.4375 Z " fill="#3C3F41" transform="translate(11.5,2.5625)"/>
<path d="M0 0 C0.33 0 0.66 0 1 0 C1.02578125 0.75925781 1.0515625 1.51851562 1.078125 2.30078125 C1.13484375 3.29464844 1.1915625 4.28851563 1.25 5.3125 C1.29640625 6.29863281 1.3428125 7.28476563 1.390625 8.30078125 C1.77964714 11.05977357 1.77964714 11.05977357 3.66015625 12.8203125 C6.59665592 14.30081818 8.91074874 14.4387737 12.1875 14.5625 C15.41796875 14.69140625 15.41796875 14.69140625 18 15 C18.33 15.66 18.66 16.32 19 17 C12.73 17 6.46 17 0 17 C0 11.39 0 5.78 0 0 Z " fill="#FAFBFC" transform="translate(0,7)"/>
<path d="M0 0 C0.33 0 0.66 0 1 0 C1 3.63 1 7.26 1 11 C-0.65 11 -2.3 11 -4 11 C-4.33 10.67 -4.66 10.34 -5 10 C-7.01594582 9.76572222 -9.038474 9.58663876 -11.0625 9.4375 C-12.16722656 9.35371094 -13.27195312 9.26992188 -14.41015625 9.18359375 C-15.69212891 9.09271484 -15.69212891 9.09271484 -17 9 C-17 8.67 -17 8.34 -17 8 C-16.10796875 8.00902344 -15.2159375 8.01804687 -14.296875 8.02734375 C-7.77125413 8.17984864 -7.77125413 8.17984864 -2.24609375 5.375 C-1.01702379 3.25338199 -1.01702379 3.25338199 0 0 Z " fill="#EBEBEC" transform="translate(23,13)"/>
<path d="M0 0 C1.98362069 2.91708924 1.9876191 4.12380904 1.625 7.75 C1.41875 8.8225 1.2125 9.895 1 11 C0.34 11 -0.32 11 -1 11 C-1 10.34 -1 9.68 -1 9 C-2.32 8.67 -3.64 8.34 -5 8 C-4.67 6.35 -4.34 4.7 -4 3 C-3.01 2.67 -2.02 2.34 -1 2 C-0.67 1.34 -0.34 0.68 0 0 Z " fill="#6C7072" transform="translate(21,6)"/>
<path d="M0 0 C1.98 0 3.96 0 6 0 C6 0.33 6 0.66 6 1 C9.63 1.33 13.26 1.66 17 2 C17 2.33 17 2.66 17 3 C16.08476562 3.03738281 15.16953125 3.07476562 14.2265625 3.11328125 C13.03804687 3.17902344 11.84953125 3.24476562 10.625 3.3125 C9.44164062 3.37050781 8.25828125 3.42851563 7.0390625 3.48828125 C6.03617187 3.65714844 5.03328125 3.82601563 4 4 C3.01 5.485 3.01 5.485 2 7 C1.34 7 0.68 7 0 7 C0 4.69 0 2.38 0 0 Z " fill="#E6E8E9" transform="translate(0,0)"/>
<path d="M0 0 C2.12472576 -0.05386629 4.24983652 -0.09273071 6.375 -0.125 C7.55835938 -0.14820313 8.74171875 -0.17140625 9.9609375 -0.1953125 C13 0 13 0 15 2 C15 2.99 15 3.98 15 5 C13.68 4.67 12.36 4.34 11 4 C11 3.34 11 2.68 11 2 C7.37 1.67 3.74 1.34 0 1 C0 0.67 0 0.34 0 0 Z " fill="#D9DBDD" transform="translate(5,4)"/>
</svg>
